{
	"asset":{
		"generator":"Khronos glTF Blender I/O v4.1.63",
		"version":"2.0"
	},
	"extensionsUsed":[
		"KHR_materials_unlit"
	],
	"scene":0,
	"scenes":[
		{
			"name":"Scene",
			"nodes":[
				10,
				11,
				12,
				13,
				14,
				15,
				17
			]
		}
	],
	"nodes":[
		{
			"mesh":0,
			"name":"Controllers_Controllers_0",
			"rotation":[
				0.06950191408395767,
				0.2202376276254654,
				0.9278612732887268,
				0.29281121492385864
			],
			"translation":[
				-2.30118465423584,
				-1.6795220375061035,
				1.85878586769104
			]
		},
		{
			"children":[
				0
			],
			"name":"Controllers",
			"rotation":[
				-0.70710688829422,
				0,
				0,
				0.7071066498756409
			],
			"scale":[
				100.00000762939453,
				99.99999237060547,
				99.99999237060547
			],
			"translation":[
				3.814697265625e-06,
				0,
				0
			]
		},
		{
			"mesh":1,
			"name":"Controllers.001_Controllers_0",
			"rotation":[
				-0.148396298289299,
				0.15602730214595795,
				-0.014492274262011051,
				0.9764343500137329
			],
			"translation":[
				1.8762428760528564,
				-1.6339462995529175,
				-2.5967462062835693
			]
		},
		{
			"children":[
				2
			],
			"name":"Controllers.001",
			"rotation":[
				-0.70710688829422,
				0,
				0,
				0.7071066498756409
			],
			"scale":[
				100.00000762939453,
				99.99999237060547,
				99.99999237060547
			],
			"translation":[
				3.814697265625e-06,
				0,
				0
			]
		},
		{
			"mesh":2,
			"name":"Oculus Headset_Headset_0"
		},
		{
			"mesh":3,
			"name":"Oculus Headset_Headset_0.001"
		},
		{
			"mesh":4,
			"name":"Oculus Headset_Headset_0.002"
		},
		{
			"children":[
				4,
				5,
				6
			],
			"name":"Oculus Headset",
			"rotation":[
				-0.70710688829422,
				0,
				0,
				0.7071066498756409
			],
			"scale":[
				100.00000762939453,
				99.99999237060547,
				99.99999237060547
			],
			"translation":[
				3.814697265625e-06,
				0,
				0
			]
		},
		{
			"children":[
				1,
				3,
				7
			],
			"name":"RootNode",
			"translation":[
				3.814697265625e-06,
				0,
				0
			]
		},
		{
			"children":[
				8
			],
			"name":"Oculus quest 2_uv.fbx",
			"rotation":[
				0.70710688829422,
				0,
				0,
				0.7071066498756409
			],
			"scale":[
				0.009999998845160007,
				0.009999999776482582,
				0.009999999776482582
			]
		},
		{
			"children":[
				9
			],
			"name":"Sketchfab_model",
			"rotation":[
				-0.70710688829422,
				0,
				0,
				0.7071066498756409
			],
			"scale":[
				0.22019656002521515,
				0.16697901487350464,
				0.1525895595550537
			],
			"translation":[
				0.11521623283624649,
				2.02532958984375,
				0.12131915241479874
			]
		},
		{
			"mesh":5,
			"name":"Shirt",
			"translation":[
				0.11026784777641296,
				0.02073928527534008,
				0.2253660410642624
			]
		},
		{
			"mesh":6,
			"name":"Retopo_Orc_lr.004",
			"translation":[
				0.10766448080539703,
				0.02421141043305397,
				0.2728568911552429
			]
		},
		{
			"mesh":7,
			"name":"Retopo_Orc_lr.001",
			"translation":[
				0.11026784777641296,
				0.02073928527534008,
				0.2253660410642624
			]
		},
		{
			"mesh":8,
			"name":"Pants",
			"translation":[
				0.11026784777641296,
				0.02073928527534008,
				0.2253660410642624
			]
		},
		{
			"mesh":9,
			"name":"Boots",
			"translation":[
				0.11026784777641296,
				0.02073928527534008,
				0.2253660410642624
			]
		},
		{
			"mesh":10,
			"name":"Retopo_3DModel_mesh.001",
			"rotation":[
				-0.6233224272727966,
				0.06930410116910934,
				0.3324371576309204,
				0.7043803930282593
			],
			"scale":[
				1.1423430442810059,
				1.1423430442810059,
				1.1423431634902954
			],
			"translation":[
				0.015180517919361591,
				-0.1545526385307312,
				0.06999213248491287
			]
		},
		{
			"children":[
				16
			],
			"name":"Winter Hat",
			"rotation":[
				0.474164217710495,
				-0.46066346764564514,
				0.32240352034568787,
				0.6775054335594177
			],
			"translation":[
				-0.014148861169815063,
				2.141737699508667,
				-0.028559044003486633
			]
		}
	],
	"materials":[
		{
			"doubleSided":true,
			"extensions":{
				"KHR_materials_unlit":{}
			},
			"name":"Controllers",
			"pbrMetallicRoughness":{
				"baseColorTexture":{
					"index":0
				},
				"metallicFactor":0,
				"roughnessFactor":0.9
			}
		},
		{
			"doubleSided":true,
			"extensions":{
				"KHR_materials_unlit":{}
			},
			"name":"Headset",
			"pbrMetallicRoughness":{
				"baseColorTexture":{
					"index":1
				},
				"metallicFactor":0,
				"roughnessFactor":0.9
			}
		},
		{
			"doubleSided":true,
			"extensions":{
				"KHR_materials_unlit":{}
			},
			"name":"Shirt",
			"pbrMetallicRoughness":{
				"baseColorTexture":{
					"index":2
				},
				"metallicFactor":0,
				"roughnessFactor":0.9
			}
		},
		{
			"alphaCutoff":0.5,
			"alphaMode":"MASK",
			"doubleSided":true,
			"name":"Mouth.001",
			"pbrMetallicRoughness":{
				"baseColorTexture":{
					"index":3
				},
				"metallicFactor":0,
				"roughnessFactor":0.5
			}
		},
		{
			"doubleSided":true,
			"extensions":{
				"KHR_materials_unlit":{}
			},
			"name":"Orc.001",
			"pbrMetallicRoughness":{
				"baseColorFactor":[
					0.8126111030578613,
					0.47198474407196045,
					0.31695497035980225,
					1
				],
				"metallicFactor":0,
				"roughnessFactor":0.9
			}
		},
		{
			"doubleSided":true,
			"extensions":{
				"KHR_materials_unlit":{}
			},
			"name":"Trousers",
			"pbrMetallicRoughness":{
				"baseColorTexture":{
					"index":4
				},
				"metallicFactor":0,
				"roughnessFactor":0.9
			}
		},
		{
			"doubleSided":true,
			"extensions":{
				"KHR_materials_unlit":{}
			},
			"name":"Boots",
			"pbrMetallicRoughness":{
				"baseColorTexture":{
					"index":5
				},
				"metallicFactor":0,
				"roughnessFactor":0.9
			}
		},
		{
			"doubleSided":true,
			"extensions":{
				"KHR_materials_unlit":{}
			},
			"name":"3DModel_Custom.002",
			"pbrMetallicRoughness":{
				"baseColorTexture":{
					"index":6
				},
				"metallicFactor":0,
				"roughnessFactor":0.9
			}
		}
	],
	"meshes":[
		{
			"name":"Controllers_Controllers_0",
			"primitives":[
				{
					"attributes":{
						"POSITION":0,
						"NORMAL":1,
						"TEXCOORD_0":2,
						"TEXCOORD_1":3,
						"TEXCOORD_2":4
					},
					"indices":5,
					"material":0
				}
			]
		},
		{
			"name":"Controllers.001_Controllers_0",
			"primitives":[
				{
					"attributes":{
						"POSITION":6,
						"NORMAL":7,
						"TEXCOORD_0":8,
						"TEXCOORD_1":9,
						"TEXCOORD_2":10
					},
					"indices":11,
					"material":0
				}
			]
		},
		{
			"name":"Oculus Headset_Headset_0",
			"primitives":[
				{
					"attributes":{
						"POSITION":12,
						"NORMAL":13,
						"TEXCOORD_0":14,
						"TEXCOORD_1":15,
						"TEXCOORD_2":16,
						"TEXCOORD_3":17
					},
					"indices":18,
					"material":1
				}
			]
		},
		{
			"name":"Oculus Headset_Headset_0.001",
			"primitives":[
				{
					"attributes":{
						"POSITION":19,
						"NORMAL":20,
						"TEXCOORD_0":21,
						"TEXCOORD_1":22,
						"TEXCOORD_2":23,
						"TEXCOORD_3":24
					},
					"indices":25,
					"material":1
				}
			]
		},
		{
			"name":"Oculus Headset_Headset_0.002",
			"primitives":[
				{
					"attributes":{
						"POSITION":26,
						"NORMAL":27,
						"TEXCOORD_0":28,
						"TEXCOORD_1":29,
						"TEXCOORD_2":30,
						"TEXCOORD_3":31
					},
					"indices":32,
					"material":1
				}
			]
		},
		{
			"name":"mesh.001",
			"primitives":[
				{
					"attributes":{
						"POSITION":33,
						"NORMAL":34,
						"TEXCOORD_0":35
					},
					"indices":36,
					"material":2
				}
			]
		},
		{
			"name":"mesh.006",
			"primitives":[
				{
					"attributes":{
						"POSITION":37,
						"NORMAL":38,
						"TEXCOORD_0":39
					},
					"indices":40,
					"material":3
				}
			]
		},
		{
			"name":"mesh.003",
			"primitives":[
				{
					"attributes":{
						"POSITION":41,
						"NORMAL":42,
						"TEXCOORD_0":43
					},
					"indices":44,
					"material":4
				}
			]
		},
		{
			"name":"mesh.004",
			"primitives":[
				{
					"attributes":{
						"POSITION":45,
						"NORMAL":46,
						"TEXCOORD_0":47
					},
					"indices":48,
					"material":5
				}
			]
		},
		{
			"name":"Cube.021",
			"primitives":[
				{
					"attributes":{
						"POSITION":49,
						"NORMAL":50,
						"TEXCOORD_0":51
					},
					"indices":52,
					"material":6
				}
			]
		},
		{
			"name":"Retopo_3DModel_mesh.002",
			"primitives":[
				{
					"attributes":{
						"POSITION":53,
						"NORMAL":54,
						"TEXCOORD_0":55
					},
					"indices":56,
					"material":7
				}
			]
		}
	],
	"textures":[
		{
			"sampler":0,
			"source":0
		},
		{
			"sampler":0,
			"source":1
		},
		{
			"sampler":0,
			"source":2
		},
		{
			"sampler":0,
			"source":3
		},
		{
			"sampler":0,
			"source":4
		},
		{
			"sampler":0,
			"source":5
		},
		{
			"sampler":0,
			"source":6
		}
	],
	"images":[
		{
			"mimeType":"image/png",
			"name":"Controllers_baseColor",
			"uri":"Assets/Controllers_baseColor.png"
		},
		{
			"mimeType":"image/png",
			"name":"Headset_baseColor",
			"uri":"Assets/Headset_baseColor.png"
		},
		{
			"mimeType":"image/png",
			"name":"Shirt",
			"uri":"Assets/Shirt.png"
		},
		{
			"mimeType":"image/png",
			"name":"1",
			"uri":"Assets/1.png"
		},
		{
			"mimeType":"image/png",
			"name":"Trousers",
			"uri":"Assets/Trousers.png"
		},
		{
			"mimeType":"image/png",
			"name":"Boots",
			"uri":"Assets/Boots.png"
		},
		{
			"mimeType":"image/jpeg",
			"name":"3DModel_Custom",
			"uri":"Assets/3DModel_Custom.jpg"
		}
	],
	"accessors":[
		{
			"bufferView":0,
			"componentType":5126,
			"count":25347,
			"max":[
				-0.860215425491333,
				0.4892256259918213,
				0.3184177875518799
			],
			"min":[
				-1.522294282913208,
				-0.2913733124732971,
				-0.5251035690307617
			],
			"type":"VEC3"
		},
		{
			"bufferView":1,
			"componentType":5126,
			"count":25347,
			"type":"VEC3"
		},
		{
			"bufferView":2,
			"componentType":5126,
			"count":25347,
			"type":"VEC2"
		},
		{
			"bufferView":3,
			"componentType":5126,
			"count":25347,
			"type":"VEC2"
		},
		{
			"bufferView":4,
			"componentType":5126,
			"count":25347,
			"type":"VEC2"
		},
		{
			"bufferView":5,
			"componentType":5123,
			"count":119976,
			"type":"SCALAR"
		},
		{
			"bufferView":6,
			"componentType":5126,
			"count":25726,
			"max":[
				1.5583986043930054,
				0.48864805698394775,
				0.318290650844574
			],
			"min":[
				0.8963298201560974,
				-0.29160183668136597,
				-0.5248956680297852
			],
			"type":"VEC3"
		},
		{
			"bufferView":7,
			"componentType":5126,
			"count":25726,
			"type":"VEC3"
		},
		{
			"bufferView":8,
			"componentType":5126,
			"count":25726,
			"type":"VEC2"
		},
		{
			"bufferView":9,
			"componentType":5126,
			"count":25726,
			"type":"VEC2"
		},
		{
			"bufferView":10,
			"componentType":5126,
			"count":25726,
			"type":"VEC2"
		},
		{
			"bufferView":11,
			"componentType":5123,
			"count":119976,
			"type":"SCALAR"
		},
		{
			"bufferView":12,
			"componentType":5126,
			"count":69125,
			"max":[
				0.6597911715507507,
				2.112381935119629,
				0.36148372292518616
			],
			"min":[
				-0.711381196975708,
				-0.3853747546672821,
				-0.4080035984516144
			],
			"type":"VEC3"
		},
		{
			"bufferView":13,
			"componentType":5126,
			"count":69125,
			"type":"VEC3"
		},
		{
			"bufferView":14,
			"componentType":5126,
			"count":69125,
			"type":"VEC2"
		},
		{
			"bufferView":15,
			"componentType":5126,
			"count":69125,
			"type":"VEC2"
		},
		{
			"bufferView":16,
			"componentType":5126,
			"count":69125,
			"type":"VEC2"
		},
		{
			"bufferView":17,
			"componentType":5126,
			"count":69125,
			"type":"VEC2"
		},
		{
			"bufferView":18,
			"componentType":5125,
			"count":334335,
			"type":"SCALAR"
		},
		{
			"bufferView":19,
			"componentType":5126,
			"count":71660,
			"max":[
				0.7278784513473511,
				2.140833854675293,
				1.1737756729125977
			],
			"min":[
				-0.7249775528907776,
				-0.3763963282108307,
				-0.4032970070838928
			],
			"type":"VEC3"
		},
		{
			"bufferView":20,
			"componentType":5126,
			"count":71660,
			"type":"VEC3"
		},
		{
			"bufferView":21,
			"componentType":5126,
			"count":71660,
			"type":"VEC2"
		},
		{
			"bufferView":22,
			"componentType":5126,
			"count":71660,
			"type":"VEC2"
		},
		{
			"bufferView":23,
			"componentType":5126,
			"count":71660,
			"type":"VEC2"
		},
		{
			"bufferView":24,
			"componentType":5126,
			"count":71660,
			"type":"VEC2"
		},
		{
			"bufferView":25,
			"componentType":5125,
			"count":336765,
			"type":"SCALAR"
		},
		{
			"bufferView":26,
			"componentType":5126,
			"count":25334,
			"max":[
				0.6244770884513855,
				0.15004034340381622,
				-0.08407659828662872
			],
			"min":[
				-0.619379997253418,
				-0.1886674016714096,
				-0.40632760524749756
			],
			"type":"VEC3"
		},
		{
			"bufferView":27,
			"componentType":5126,
			"count":25334,
			"type":"VEC3"
		},
		{
			"bufferView":28,
			"componentType":5126,
			"count":25334,
			"type":"VEC2"
		},
		{
			"bufferView":29,
			"componentType":5126,
			"count":25334,
			"type":"VEC2"
		},
		{
			"bufferView":30,
			"componentType":5126,
			"count":25334,
			"type":"VEC2"
		},
		{
			"bufferView":31,
			"componentType":5126,
			"count":25334,
			"type":"VEC2"
		},
		{
			"bufferView":32,
			"componentType":5123,
			"count":124788,
			"type":"SCALAR"
		},
		{
			"bufferView":33,
			"componentType":5126,
			"count":2917,
			"max":[
				0.37668555974960327,
				1.763852596282959,
				-0.03435255587100983
			],
			"min":[
				-0.33048155903816223,
				1.0501493215560913,
				-0.38779953122138977
			],
			"type":"VEC3"
		},
		{
			"bufferView":34,
			"componentType":5126,
			"count":2917,
			"type":"VEC3"
		},
		{
			"bufferView":35,
			"componentType":5126,
			"count":2917,
			"type":"VEC2"
		},
		{
			"bufferView":36,
			"componentType":5123,
			"count":15504,
			"type":"SCALAR"
		},
		{
			"bufferView":37,
			"componentType":5126,
			"count":15,
			"max":[
				0.035459667444229126,
				1.8958381414413452,
				-0.18787680566310883
			],
			"min":[
				-0.03482692316174507,
				1.8607233762741089,
				-0.19463442265987396
			],
			"type":"VEC3"
		},
		{
			"bufferView":38,
			"componentType":5126,
			"count":15,
			"type":"VEC3"
		},
		{
			"bufferView":39,
			"componentType":5126,
			"count":15,
			"type":"VEC2"
		},
		{
			"bufferView":40,
			"componentType":5123,
			"count":48,
			"type":"SCALAR"
		},
		{
			"bufferView":41,
			"componentType":5126,
			"count":7465,
			"max":[
				0.6656506657600403,
				2.2004244327545166,
				0.5654882192611694
			],
			"min":[
				-0.36113542318344116,
				0.636249840259552,
				-0.44466298818588257
			],
			"type":"VEC3"
		},
		{
			"bufferView":42,
			"componentType":5126,
			"count":7465,
			"type":"VEC3"
		},
		{
			"bufferView":43,
			"componentType":5126,
			"count":7465,
			"type":"VEC2"
		},
		{
			"bufferView":44,
			"componentType":5123,
			"count":40464,
			"type":"SCALAR"
		},
		{
			"bufferView":45,
			"componentType":5126,
			"count":2935,
			"max":[
				0.21052950620651245,
				1.3894764184951782,
				0.5366846323013306
			],
			"min":[
				-0.23043856024742126,
				0.6577019691467285,
				-0.3044796884059906
			],
			"type":"VEC3"
		},
		{
			"bufferView":46,
			"componentType":5126,
			"count":2935,
			"type":"VEC3"
		},
		{
			"bufferView":47,
			"componentType":5126,
			"count":2935,
			"type":"VEC2"
		},
		{
			"bufferView":48,
			"componentType":5123,
			"count":15504,
			"type":"SCALAR"
		},
		{
			"bufferView":49,
			"componentType":5126,
			"count":1302,
			"max":[
				0.18854783475399017,
				1.2290809154510498,
				0.7825588583946228
			],
			"min":[
				-0.19200129806995392,
				0.5044442415237427,
				0.22370190918445587
			],
			"type":"VEC3"
		},
		{
			"bufferView":50,
			"componentType":5126,
			"count":1302,
			"type":"VEC3"
		},
		{
			"bufferView":51,
			"componentType":5126,
			"count":1302,
			"type":"VEC2"
		},
		{
			"bufferView":52,
			"componentType":5123,
			"count":6720,
			"type":"SCALAR"
		},
		{
			"bufferView":53,
			"componentType":5126,
			"count":101496,
			"max":[
				0.1553819626569748,
				0.17464901506900787,
				0.13386206328868866
			],
			"min":[
				-0.13805390894412994,
				-0.003827621228992939,
				-0.1472790539264679
			],
			"type":"VEC3"
		},
		{
			"bufferView":54,
			"componentType":5126,
			"count":101496,
			"type":"VEC3"
		},
		{
			"bufferView":55,
			"componentType":5126,
			"count":101496,
			"type":"VEC2"
		},
		{
			"bufferView":56,
			"componentType":5125,
			"count":489132,
			"type":"SCALAR"
		}
	],
	"bufferViews":[
		{
			"buffer":0,
			"byteLength":304164,
			"byteOffset":0,
			"target":34962
		},
		{
			"buffer":0,
			"byteLength":304164,
			"byteOffset":304164,
			"target":34962
		},
		{
			"buffer":0,
			"byteLength":202776,
			"byteOffset":608328,
			"target":34962
		},
		{
			"buffer":0,
			"byteLength":202776,
			"byteOffset":811104,
			"target":34962
		},
		{
			"buffer":0,
			"byteLength":202776,
			"byteOffset":1013880,
			"target":34962
		},
		{
			"buffer":0,
			"byteLength":239952,
			"byteOffset":1216656,
			"target":34963
		},
		{
			"buffer":0,
			"byteLength":308712,
			"byteOffset":1456608,
			"target":34962
		},
		{
			"buffer":0,
			"byteLength":308712,
			"byteOffset":1765320,
			"target":34962
		},
		{
			"buffer":0,
			"byteLength":205808,
			"byteOffset":2074032,
			"target":34962
		},
		{
			"buffer":0,
			"byteLength":205808,
			"byteOffset":2279840,
			"target":34962
		},
		{
			"buffer":0,
			"byteLength":205808,
			"byteOffset":2485648,
			"target":34962
		},
		{
			"buffer":0,
			"byteLength":239952,
			"byteOffset":2691456,
			"target":34963
		},
		{
			"buffer":0,
			"byteLength":829500,
			"byteOffset":2931408,
			"target":34962
		},
		{
			"buffer":0,
			"byteLength":829500,
			"byteOffset":3760908,
			"target":34962
		},
		{
			"buffer":0,
			"byteLength":553000,
			"byteOffset":4590408,
			"target":34962
		},
		{
			"buffer":0,
			"byteLength":553000,
			"byteOffset":5143408,
			"target":34962
		},
		{
			"buffer":0,
			"byteLength":553000,
			"byteOffset":5696408,
			"target":34962
		},
		{
			"buffer":0,
			"byteLength":553000,
			"byteOffset":6249408,
			"target":34962
		},
		{
			"buffer":0,
			"byteLength":1337340,
			"byteOffset":6802408,
			"target":34963
		},
		{
			"buffer":0,
			"byteLength":859920,
			"byteOffset":8139748,
			"target":34962
		},
		{
			"buffer":0,
			"byteLength":859920,
			"byteOffset":8999668,
			"target":34962
		},
		{
			"buffer":0,
			"byteLength":573280,
			"byteOffset":9859588,
			"target":34962
		},
		{
			"buffer":0,
			"byteLength":573280,
			"byteOffset":10432868,
			"target":34962
		},
		{
			"buffer":0,
			"byteLength":573280,
			"byteOffset":11006148,
			"target":34962
		},
		{
			"buffer":0,
			"byteLength":573280,
			"byteOffset":11579428,
			"target":34962
		},
		{
			"buffer":0,
			"byteLength":1347060,
			"byteOffset":12152708,
			"target":34963
		},
		{
			"buffer":0,
			"byteLength":304008,
			"byteOffset":13499768,
			"target":34962
		},
		{
			"buffer":0,
			"byteLength":304008,
			"byteOffset":13803776,
			"target":34962
		},
		{
			"buffer":0,
			"byteLength":202672,
			"byteOffset":14107784,
			"target":34962
		},
		{
			"buffer":0,
			"byteLength":202672,
			"byteOffset":14310456,
			"target":34962
		},
		{
			"buffer":0,
			"byteLength":202672,
			"byteOffset":14513128,
			"target":34962
		},
		{
			"buffer":0,
			"byteLength":202672,
			"byteOffset":14715800,
			"target":34962
		},
		{
			"buffer":0,
			"byteLength":249576,
			"byteOffset":14918472,
			"target":34963
		},
		{
			"buffer":0,
			"byteLength":35004,
			"byteOffset":15168048,
			"target":34962
		},
		{
			"buffer":0,
			"byteLength":35004,
			"byteOffset":15203052,
			"target":34962
		},
		{
			"buffer":0,
			"byteLength":23336,
			"byteOffset":15238056,
			"target":34962
		},
		{
			"buffer":0,
			"byteLength":31008,
			"byteOffset":15261392,
			"target":34963
		},
		{
			"buffer":0,
			"byteLength":180,
			"byteOffset":15292400,
			"target":34962
		},
		{
			"buffer":0,
			"byteLength":180,
			"byteOffset":15292580,
			"target":34962
		},
		{
			"buffer":0,
			"byteLength":120,
			"byteOffset":15292760,
			"target":34962
		},
		{
			"buffer":0,
			"byteLength":96,
			"byteOffset":15292880,
			"target":34963
		},
		{
			"buffer":0,
			"byteLength":89580,
			"byteOffset":15292976,
			"target":34962
		},
		{
			"buffer":0,
			"byteLength":89580,
			"byteOffset":15382556,
			"target":34962
		},
		{
			"buffer":0,
			"byteLength":59720,
			"byteOffset":15472136,
			"target":34962
		},
		{
			"buffer":0,
			"byteLength":80928,
			"byteOffset":15531856,
			"target":34963
		},
		{
			"buffer":0,
			"byteLength":35220,
			"byteOffset":15612784,
			"target":34962
		},
		{
			"buffer":0,
			"byteLength":35220,
			"byteOffset":15648004,
			"target":34962
		},
		{
			"buffer":0,
			"byteLength":23480,
			"byteOffset":15683224,
			"target":34962
		},
		{
			"buffer":0,
			"byteLength":31008,
			"byteOffset":15706704,
			"target":34963
		},
		{
			"buffer":0,
			"byteLength":15624,
			"byteOffset":15737712,
			"target":34962
		},
		{
			"buffer":0,
			"byteLength":15624,
			"byteOffset":15753336,
			"target":34962
		},
		{
			"buffer":0,
			"byteLength":10416,
			"byteOffset":15768960,
			"target":34962
		},
		{
			"buffer":0,
			"byteLength":13440,
			"byteOffset":15779376,
			"target":34963
		},
		{
			"buffer":0,
			"byteLength":1217952,
			"byteOffset":15792816,
			"target":34962
		},
		{
			"buffer":0,
			"byteLength":1217952,
			"byteOffset":17010768,
			"target":34962
		},
		{
			"buffer":0,
			"byteLength":811968,
			"byteOffset":18228720,
			"target":34962
		},
		{
			"buffer":0,
			"byteLength":1956528,
			"byteOffset":19040688,
			"target":34963
		}
	],
	"samplers":[
		{
			"magFilter":9729,
			"minFilter":9987
		}
	],
	"buffers":[
		{
			"byteLength":20997216,
			"uri":"Scene.bin"
		}
	]
}
