<?xml version="1.0" encoding="UTF-8"?>
<svg version="1.1" xmlns="http://www.w3.org/2000/svg" width="1667" height="1667">
<path d="M0 0 C-4.23386873 27.93080718 -8.69234438 55.82164907 -13.2477715 83.70166159 C-14.17329408 89.36884145 -15.09659518 95.03638327 -16.02012634 100.70388794 C-17.97148752 112.67697274 -19.92494559 124.64971468 -21.87890625 136.62237549 C-27.73844601 172.52621407 -33.59224813 208.43098335 -39.42906177 244.3385241 C-40.46651343 250.72043544 -41.50501244 257.10217519 -42.54431552 263.48378527 C-44.14100834 273.28845035 -45.7340577 283.09369156 -47.31928414 292.90021765 C-48.0340375 297.32154695 -48.75046704 301.74258564 -49.47166634 306.1628685 C-50.12905569 310.19253636 -50.78130066 314.22300154 -51.42938161 318.25417662 C-51.66372956 319.70625755 -51.89993133 321.15804078 -52.13818431 322.6094861 C-52.46100596 324.57794629 -52.77633045 326.5476316 -53.09129333 328.5173645 C-53.26813376 329.60861696 -53.44497419 330.69986942 -53.62717342 331.82419014 C-54.58984203 338.44119956 -54.58984203 338.44119956 -52.36694336 344.41186523 C-51.61550049 345.12028564 -50.86405762 345.82870605 -50.08984375 346.55859375 C-49.26419922 347.35716797 -48.43855469 348.15574219 -47.58789062 348.97851562 C-46.27594727 350.19571289 -46.27594727 350.19571289 -44.9375 351.4375 C-43.23598501 353.05879147 -41.53673367 354.68246218 -39.83984375 356.30859375 C-39.01726074 357.09089355 -38.19467773 357.87319336 -37.34716797 358.67919922 C-34.54749889 361.44741789 -31.98762242 364.36236396 -29.47485352 367.39086914 C-27.89666349 369.24120224 -27.89666349 369.24120224 -25 371 C-22.7042205 370.88367753 -22.7042205 370.88367753 -20.16673279 370.24240112 C-19.17050903 370.02374893 -18.17428528 369.80509674 -17.14787292 369.57981873 C-16.0554982 369.32644241 -14.96312347 369.0730661 -13.83764648 368.81201172 C-12.11008621 368.42706795 -12.11008621 368.42706795 -10.34762573 368.03434753 C-7.18130978 367.32619975 -4.01780341 366.60679467 -0.8551662 365.88242865 C2.46958129 365.1237618 5.79756396 364.37956473 9.12522888 363.63381958 C15.44900804 362.21432995 21.76979002 360.78193153 28.08959764 359.34487545 C35.20907822 357.72659655 42.3316429 356.1221173 49.45457184 354.51909614 C59.40399759 352.27983723 69.35218627 350.03524684 79.29803371 347.78013802 C83.84416901 346.74958165 88.39081929 345.72130993 92.93754959 344.69338226 C95.83876498 344.0365059 98.73921016 343.37631255 101.63961792 342.71588135 C103.28305552 342.34440146 104.92653552 341.97310907 106.57006836 341.60205078 C107.29593171 341.43561003 108.02179506 341.26916927 108.76965427 341.09768486 C111.58820556 340.46476278 114.0995677 340 117 340 C117 338.9805127 117 337.96102539 117 336.91064453 C117 325.94042969 117 314.97021484 117 304 C115.11190501 302.57692173 115.11190501 302.57692173 112.63671875 301.1640625 C111.22749146 300.31932373 111.22749146 300.31932373 109.78979492 299.45751953 C108.7660376 298.85278809 107.74228027 298.24805664 106.6875 297.625 C104.55128843 296.34507577 102.41588177 295.06380725 100.28125 293.78125 C99.21261719 293.14058594 98.14398437 292.49992187 97.04296875 291.83984375 C92.88652609 289.32676995 88.78277773 286.73616169 84.6875 284.125 C73.92136093 277.28096851 63.04097755 270.62430882 52.16992188 263.94873047 C45.70971401 259.9772749 39.26134306 255.98684426 32.8203125 251.984375 C29.61838563 249.99590491 26.40455647 248.02915093 23.1796875 246.078125 C22.42961426 245.62034668 21.67954102 245.16256836 20.90673828 244.69091797 C19.51088558 243.83924873 18.11104373 242.99406908 16.70654297 242.15673828 C12.11276636 239.33829908 12.11276636 239.33829908 11 236 C11.16016473 234.03965146 11.40833631 232.08611581 11.70149231 230.14120483 C11.88233871 228.91847366 12.06318512 227.69574249 12.24951172 226.43595886 C12.45761797 225.07886559 12.665875 223.72179543 12.87426758 222.36474609 C13.08820647 220.93746047 13.30154543 219.51008481 13.514328 218.08262634 C14.09452696 214.20372117 14.68380219 210.32624559 15.27518296 206.44903135 C15.76748029 203.21600331 16.25538831 199.9823193 16.74329585 196.74862635 C17.89378368 189.12407333 19.05161619 181.50066053 20.21411133 173.87792969 C21.41504288 166.00237715 22.60418219 158.12510862 23.78745157 150.2468847 C24.80255842 143.49087559 25.82463438 136.73594676 26.85242766 129.98185599 C27.46678205 125.94429963 28.07850385 121.90638864 28.68366432 117.86744308 C29.25259944 114.07251358 29.8302072 110.27900657 30.4146595 106.48643684 C30.62822486 105.09085982 30.83868058 103.69480304 31.04587173 102.29826546 C31.32811671 100.39919825 31.62248021 98.50194366 31.91755676 96.60482788 C32.07924756 95.54036627 32.24093836 94.47590466 32.40752888 93.37918663 C32.60304435 92.59405504 32.79855982 91.80892345 33 91 C33.66 90.67 34.32 90.34 35 90 C36.7331543 90.8293457 36.7331543 90.8293457 38.82421875 92.17578125 C39.59685059 92.66828369 40.36948242 93.16078613 41.16552734 93.66821289 C42.41390381 94.48213501 42.41390381 94.48213501 43.6875 95.3125 C44.5532666 95.8686499 45.4190332 96.4247998 46.31103516 96.99780273 C51.78065594 100.5229274 57.21356071 104.10235808 62.61474609 107.73144531 C69.31214532 112.2286909 76.06285685 116.64428381 82.8125 121.0625 C83.43936707 121.47291534 84.06623413 121.88333069 84.71209717 122.30618286 C89.14059897 125.20534406 93.57007443 128.10301489 98 131 C98.56926208 131.37227722 99.13852417 131.74455444 99.72503662 132.12811279 C104.54592389 135.28067265 109.36714362 138.43272377 114.1887207 141.58422852 C122.29610802 146.88395852 130.39880732 152.19080898 138.5 157.5 C151.9936733 166.34302054 165.49552054 175.17348877 179 184 C183.27095025 186.79148785 187.54179975 189.58312969 191.8125 192.375 C192.87315674 193.06835449 193.93381348 193.76170898 195.02661133 194.47607422 C200.81286721 198.25941209 206.59718412 202.04567601 212.37890625 205.8359375 C213.30643456 206.4439772 213.30643456 206.4439772 214.25270081 207.06430054 C215.18081825 207.672733 215.18081825 207.672733 216.12768555 208.29345703 C225.40857015 214.3775841 234.69066543 220.45943617 244 226.5 C250.31127429 230.59622146 256.61813369 234.69917939 262.91040039 238.82455444 C266.0759992 240.89979509 269.24703732 242.96530429 272.43261719 245.00976562 C278.53662404 248.94458901 284.43831582 252.90707298 289.87744141 257.75170898 C296.15334322 262.4636968 296.15334322 262.4636968 303.66892815 263.98167515 C306.67655545 263.50138088 309.58803106 262.85074715 312.54345703 262.11450195 C313.63711641 261.86839581 314.73077579 261.62228968 315.85757637 261.36872578 C318.13286668 260.85428294 320.40529413 260.32701862 322.67472076 259.7872963 C325.76653905 259.05527444 328.86338929 258.36319964 331.96868896 257.69100952 C338.00497756 256.38325715 344.02986604 255.02742621 350.0546875 253.66796875 C352.32289435 253.1584894 354.59116095 252.64927606 356.85948181 252.14030457 C361.6821452 251.05761181 366.50440001 249.97312493 371.32632446 248.887146 C378.39699372 247.29472573 385.46841405 245.70565964 392.54004633 244.11752272 C403.22298741 241.71832845 413.90554614 239.31743814 424.58776319 236.91502237 C445.53674507 232.20364863 466.48813513 227.50302506 487.43994141 222.80422974 C492.80451758 221.60111718 498.16902099 220.39768054 503.53350639 219.19416332 C542.14419822 210.53207472 580.75928604 201.88966513 619.375 193.25 C620.13253602 193.08051283 620.89007204 192.91102566 621.6705637 192.73640251 C625.4982022 191.88002705 629.32584126 191.02365413 633.15348053 190.1672821 C640.79373175 188.45789858 648.43397806 186.74849308 656.07421875 185.0390625 C656.82940953 184.87009649 657.58460032 184.70113049 658.36267567 184.5270443 C689.68683728 177.51856604 721.00986016 170.50501079 752.33224106 163.4885788 C756.16969341 162.62898868 760.0071615 161.76946883 763.84463501 160.90997314 C790.38631424 154.96528755 816.92729855 149.01752598 843.46631044 143.0609442 C848.19327942 142.00001082 852.92029967 140.93930615 857.64735413 139.87875366 C858.30685399 139.73078838 858.96635385 139.5828231 859.64583856 139.43037403 C862.2858979 138.83805502 864.92595857 138.24574196 867.56602585 137.65345836 C874.53610232 136.08975475 881.50606703 134.52555729 888.47567749 132.95977783 C912.62875586 127.53371862 936.77991484 122.12026501 961 117 C961 131.52 961 146.04 961 161 C942.62219544 165.59445114 942.62219544 165.59445114 935.09008789 167.26953125 C933.77179473 167.56530595 933.77179473 167.56530595 932.42686939 167.86705589 C929.52588344 168.51742193 926.62427682 169.1649717 923.72265625 169.8125 C921.5906301 170.28984054 919.45864286 170.76735488 917.32669067 171.24502563 C911.47769711 172.55497221 905.62814708 173.86241831 899.7784996 175.16944122 C894.08005991 176.44309289 888.38204703 177.71865031 882.68401444 178.99412179 C869.34662111 181.9795212 856.00859914 184.96210543 842.67038822 187.94384956 C831.80649677 190.37247048 820.94275437 192.80175716 810.07910156 195.23144531 C806.84484387 195.95478964 803.61058568 196.67813178 800.37632751 197.401474 C799.56860757 197.58212101 798.76088763 197.76276803 797.92869133 197.9488892 C775.13846852 203.04591522 752.34807818 208.14219158 729.55737305 213.23706055 C696.21852433 220.69000828 662.8799691 228.14425696 629.54296875 235.60546875 C628.77061567 235.7783294 627.99826259 235.95119006 627.20250487 236.12928891 C618.01154731 238.18632607 608.82061216 240.2434634 599.62968379 242.30063099 C558.16055577 251.58248889 516.69053288 260.86026975 475.21621704 270.118927 C468.90083326 271.52877761 462.58554136 272.93903946 456.27026367 274.34936523 C452.29606696 275.23684219 448.32186373 276.12428999 444.34765625 277.01171875 C443.39368391 277.22474073 442.43971157 277.43776272 441.45683098 277.65723991 C430.49554807 280.10478102 419.53378761 282.5501603 408.57117271 284.99172878 C402.01159352 286.45271502 395.45236952 287.91528738 388.89344215 289.37919712 C384.52269741 290.35459847 380.15147753 291.32782768 375.77983761 292.29920864 C372.59625049 293.0072891 369.41341367 293.71872676 366.23046875 294.4296875 C364.53911049 294.80435905 364.53911049 294.80435905 362.81358337 295.18659973 C361.80026443 295.41361069 360.7869455 295.64062164 359.74291992 295.87451172 C358.86778244 296.06939178 357.99264496 296.26427185 357.09098816 296.46505737 C354.96069522 296.93149573 354.96069522 296.93149573 353 298 C353.89074219 298.57363281 354.78148437 299.14726563 355.69921875 299.73828125 C368.31916742 307.87901365 380.87529071 316.11662786 393.4337616 324.35166931 C399.61876472 328.40684341 405.80899414 332.45399586 412 336.5 C421.78555922 342.89585889 431.5656041 349.30008067 441.34326172 355.70800781 C449.89214708 361.31048774 458.44431236 366.90791041 467 372.5 C476.78551896 378.89592059 486.56560402 385.30008062 496.34326172 391.70800781 C504.89214708 397.31048774 513.44431236 402.90791041 522 408.5 C531.78551896 414.89592059 541.56560402 421.30008062 551.34326172 427.70800781 C559.89214708 433.31048774 568.44431236 438.90791041 577 444.5 C586.77982866 450.89220135 596.55451783 457.29219646 606.32614136 463.69692993 C612.94512963 468.03526884 619.56557505 472.37133611 626.19140625 476.69921875 C626.77381073 477.07970367 627.35621521 477.4601886 627.95626831 477.85220337 C630.6956382 479.6417712 633.43536953 481.43077749 636.17578125 483.21875 C641.25451362 486.53588017 646.31929728 489.87228179 651.36499023 493.23950195 C652.42604477 493.94742386 653.4870993 494.65534576 654.58030701 495.38471985 C655.77805504 496.18428352 655.77805504 496.18428352 657 497 C656.75038287 498.74787296 656.50076241 500.49574545 656.25112915 502.2436161 C656.02285518 503.84199516 655.79460499 505.44037761 655.56637573 507.03876305 C654.9078714 511.65005318 654.24877206 516.26125725 653.58874512 520.87232971 C652.17676602 530.74015914 650.7713787 540.6088275 649.3828125 550.47998047 C648.1884525 558.9661167 646.97187021 567.44880684 645.73374939 575.92867088 C645.03357187 580.7297187 644.34462281 585.53192013 643.67724609 590.33764648 C643.01317271 595.11644968 642.32299051 599.89079531 641.61399841 604.66313362 C641.35261401 606.45395309 641.10063006 608.24617239 640.85853577 610.03970146 C640.52384231 612.50803292 640.15586732 614.96915816 639.77929688 617.43139648 C639.64345436 618.52248718 639.64345436 618.52248718 639.50486755 619.63562012 C639.17468262 621.65696716 639.17468262 621.65696716 638 625 C633.80638513 627.9252182 628.84908207 629.08052433 623.95947266 630.45410156 C623.16851102 630.68144548 622.37754938 630.90878941 621.56261921 631.14302254 C618.93133265 631.89781953 616.29773345 632.64419427 613.6640625 633.390625 C611.78496935 633.92790742 609.90603099 634.46573144 608.02723694 635.00405884 C604.00271667 636.15600644 599.97717251 637.30427681 595.95077515 638.449646 C589.56293644 640.2667932 583.17740561 642.0919554 576.79223633 643.91845703 C569.14852464 646.1044459 561.50430705 648.28864689 553.85937214 650.47035408 C536.42686444 655.4454851 519.00354723 660.45233431 501.58221436 665.46643066 C496.66002074 666.88304545 491.73751959 668.29858939 486.81494141 669.71386719 C486.00460449 669.94684761 485.19426758 670.17982803 484.359375 670.41986847 C482.73034943 670.88823008 481.10132365 671.35659098 479.47229767 671.82495117 C458.64635401 677.81287516 437.82143553 683.80436457 416.99645996 689.7956543 C384.72537606 699.07994396 352.4526324 708.3584573 320.17965698 717.63616943 C308.44394886 721.00990712 296.70828497 724.38379863 284.97265625 727.7578125 C283.73616081 728.11330673 283.73616081 728.11330673 282.47468567 728.47598267 C276.64978893 730.15064982 270.8248942 731.825324 265 733.5 C258.34244934 735.41406744 251.68489759 737.32813111 245.02734375 739.2421875 C244.20315445 739.47914337 243.37896515 739.71609924 242.52980042 739.9602356 C230.78209739 743.33771546 219.03434521 746.71502429 207.28656387 750.09223175 C199.71186502 752.26978326 192.13717844 754.44737748 184.5625 756.625 C183.73150787 756.86389954 182.90051575 757.10279907 182.04434204 757.34893799 C156.03357698 764.82673717 130.0236733 772.30752635 104.0144043 779.79052734 C87.51643251 784.53706592 71.01821666 789.28275292 54.51922226 794.02573586 C51.97008988 794.75855027 49.42097201 795.49141519 46.87185669 796.22428894 C39.25885971 798.41296893 31.6457605 800.6012903 24.03215599 802.7878561 C19.89244924 803.97677551 15.75283662 805.16602237 11.61328125 806.35546875 C10.79997219 806.58915979 9.98666313 806.82285084 9.14870834 807.06362343 C-2.30099002 810.35421079 -13.74569871 813.66168653 -25.18704414 816.98119354 C-29.83473053 818.32910303 -34.48317351 819.67440163 -39.13160992 821.01972198 C-43.48357793 822.27965581 -47.8341483 823.54427488 -52.18371105 824.81248569 C-54.19728211 825.39870525 -56.2115316 825.98251838 -58.22612 826.56523132 C-60.66067646 827.26945086 -63.09411571 827.97754902 -65.52619934 828.69026184 C-66.59230942 828.9973558 -67.65841949 829.30444977 -68.75683594 829.62084961 C-70.14029205 830.02308998 -70.14029205 830.02308998 -71.55169678 830.43345642 C-74 831 -74 831 -78 831 C-77.40183941 822.45700637 -76.36522718 814.04671227 -75.06640625 805.58398438 C-74.8727951 804.30118591 -74.67918396 803.01838745 -74.47970581 801.69671631 C-73.95443006 798.21737077 -73.42422827 794.73879306 -72.89295578 791.26035881 C-72.33555789 787.60582086 -71.78244819 783.95063367 -71.22875977 780.29553223 C-70.30008643 774.16926152 -69.3683449 768.04346388 -68.43457031 761.91796875 C-67.35571305 754.84059175 -66.28101996 747.76259242 -65.20868397 740.68422461 C-64.06394948 733.12821104 -62.91628402 725.57264484 -61.76771164 718.01721382 C-61.43777129 715.84553565 -61.10836927 713.67377638 -60.77908325 711.5019989 C-60.16624151 707.46126326 -59.55010984 703.42103603 -58.93359375 699.38085938 C-58.7517453 698.17979553 -58.56989685 696.97873169 -58.38253784 695.74127197 C-58.21432526 694.6424469 -58.04611267 693.54362183 -57.87280273 692.41149902 C-57.65490334 690.98028843 -57.65490334 690.98028843 -57.43260193 689.52016449 C-57.05286638 687.30797822 -56.58082978 685.16682557 -56 683 C-38.71927117 677.89094813 -21.28915535 673.38480818 -3.84140015 668.89053345 C4.250483 666.806163 12.34005495 664.71284731 20.42978477 662.62013817 C22.31686777 662.13200099 24.20397453 661.64395565 26.09110451 661.15600014 C46.10539345 655.98072399 66.1065816 650.75585835 86.10537338 645.52106857 C94.3889995 643.3528962 102.67292079 641.18585227 110.95703125 639.01953125 C112.35203322 638.65473254 112.35203322 638.65473254 113.77521706 638.28256416 C137.17708623 632.16380094 160.58861645 626.08223577 184 620 C215.42287536 611.8361445 246.84069952 603.65343227 278.25 595.4375 C313.16324527 586.30526022 348.08242885 577.19602795 383.00756836 568.109375 C385.98267643 567.33529323 388.95778148 566.5611999 391.93288231 565.7870903 C393.89523048 565.27649581 395.85758321 564.76591885 397.81994057 564.25535965 C411.04913485 560.81317255 424.27568855 557.36103055 437.50003624 553.90027237 C442.67150099 552.54730748 447.84344924 551.19619197 453.01541615 549.84514809 C457.80946936 548.59257612 462.60269034 547.33688252 467.395298 546.07879162 C470.29409272 545.31863184 473.19365992 544.5614544 476.0934639 543.8051548 C478.0564872 543.29218496 480.01853951 542.77550381 481.9805603 542.25871277 C483.13593292 541.95798355 484.29130554 541.65725433 485.48168945 541.34741211 C486.48230911 541.08528427 487.48292877 540.82315643 488.51387024 540.55308533 C491 540 491 540 494 540 C492.7289175 536.18675249 491.46071033 535.77699885 488.05859375 533.734375 C486.48911987 532.78183838 486.48911987 532.78183838 484.88793945 531.81005859 C483.73781024 531.12334347 482.58766328 530.43665806 481.4375 529.75 C479.65081101 528.67007902 477.86600613 527.58708574 476.0811615 526.50411987 C474.85837393 525.76261912 473.63494645 525.02217266 472.41090393 524.28274536 C466.5034767 520.71234869 460.65548482 517.0497692 454.8125 513.375 C438.89780762 503.36197247 438.89780762 503.36197247 422.73950195 493.7512207 C420 492 420 492 417.36010742 489.62963867 C413.26360569 486.28028241 409.84516156 483.99892119 404.50497437 484.00094604 C397.09834211 484.81710274 389.90874265 486.79260575 382.71303558 488.66764832 C379.2256682 489.56267767 375.72323582 490.39410209 372.22119141 491.22949219 C367.36627678 492.39069427 362.51275477 493.55672739 357.6640625 494.74368286 C341.42565224 498.71177367 325.13018469 502.41972805 308.82421875 506.09765625 C308.13473672 506.2532299 307.44525468 506.40880355 306.73487926 506.56909156 C300.37406667 508.00430022 294.01299214 509.43834423 287.65151501 510.87060452 C277.90981052 513.06409491 268.17026797 515.26695509 258.43237305 517.47729492 C257.76413895 517.62897239 257.09590485 517.78064986 256.40742123 517.93692362 C253.72953047 518.5447808 251.05164248 519.1526502 248.37376434 519.76056296 C239.97358195 521.66727313 231.57220923 523.56872534 223.17082882 525.47014904 C215.74780024 527.15040308 208.3256662 528.83453832 200.90416527 530.52152634 C196.29146099 531.56911225 191.67795538 532.61313303 187.0642128 533.65613556 C184.92260029 534.14104312 182.78132396 534.6274381 180.64040756 535.11540985 C177.72745847 535.77913518 174.81336836 536.43759537 171.89892578 537.09472656 C170.62195517 537.3877 170.62195517 537.3877 169.31918716 537.6865921 C168.53879955 537.86141869 167.75841194 538.03624527 166.95437622 538.21636963 C166.28242281 538.36880253 165.6104694 538.52123543 164.91815376 538.67828751 C163 539 163 539 159 539 C159 567.71 159 596.42 159 626 C155.60504755 624.30252378 154.28741116 623.51322452 151.8984375 620.875 C151.33068604 620.25568604 150.76293457 619.63637207 150.17797852 618.99829102 C149.58299561 618.33885498 148.9880127 617.67941895 148.375 617 C147.12256102 615.63276906 145.868648 614.26688696 144.61328125 612.90234375 C143.9992041 612.23444824 143.38512695 611.56655273 142.75244141 610.87841797 C140.4158415 608.37384849 138.00326279 605.96577027 135.5625 603.5625 C132.81734505 600.85288104 130.18634802 598.12517011 127.6875 595.1875 C124.4776108 591.42865112 121.01209878 587.97257593 117.5 584.5 C113.47559467 580.5207303 109.6154645 576.50841337 105.96484375 572.1796875 C102.57230644 568.4161968 98.91046287 564.9086859 95.265625 561.390625 C93.80748123 559.96321494 92.39908432 558.48534366 91 557 C91 556.34 91 555.68 91 555 C89.41759521 555.38816895 89.41759521 555.38816895 87.80322266 555.78417969 C66.03629213 561.12273238 44.26655499 566.44967831 22.4921875 571.7578125 C21.21902176 572.06818829 21.21902176 572.06818829 19.9201355 572.38483429 C15.55187181 573.44972178 11.18359247 574.51454504 6.81530762 575.5793457 C5.04353814 576.01122934 3.27176893 576.44311411 1.5 576.875 C0.62227432 577.08895416 -0.25545135 577.30290833 -1.15977478 577.52334595 C-33.11536247 585.31308081 -65.0619999 593.13844731 -97 601 C-102.04955374 629.91114676 -106.75647063 658.87651041 -111.45066667 687.84711218 C-112.41390929 693.78964154 -113.37873055 699.73191443 -114.34356626 705.67418529 C-116.25027808 717.41753487 -118.1557648 729.16108283 -120.06030273 740.90478516 C-120.17328139 741.6014286 -120.28626005 742.29807204 -120.4026623 743.01582588 C-120.63138372 744.42615971 -120.86010501 745.83649356 -121.08882619 747.24682743 C-121.25900273 748.29616397 -121.25900273 748.29616397 -121.43261719 749.36669922 C-121.5461983 750.0670607 -121.65977941 750.76742219 -121.77680238 751.48900675 C-123.04813674 759.3281608 -124.31978977 767.16726313 -125.59155273 775.00634766 C-125.76307936 776.06363256 -125.76307936 776.06363256 -125.93807117 777.14227675 C-127.84396791 788.88998994 -129.7505976 800.6375841 -131.65764827 812.38511002 C-132.93281849 820.24052266 -134.20695827 828.09610175 -135.48033774 835.95180488 C-136.26866558 840.81408841 -137.05773476 845.67625143 -137.84699631 850.53838348 C-138.21295651 852.79384053 -138.57859886 855.04934917 -138.94390297 857.30491257 C-139.44160566 860.37771818 -139.94042839 863.45033995 -140.43952942 866.5229187 C-140.58427084 867.41830789 -140.72901227 868.31369709 -140.87813979 869.23621929 C-141.51877065 873.17325523 -142.17636548 877.09603005 -143 881 C-156.61290481 884.84325436 -170.40468421 887.86255122 -184.20703125 890.9375 C-186.74327887 891.5048639 -189.27946656 892.07249579 -191.81559753 892.64038086 C-197.78553251 893.97646951 -203.75606885 895.30983803 -209.72691315 896.64185619 C-216.46005699 898.1441011 -223.19238926 899.64996717 -229.924667 901.15608788 C-238.16928235 903.00044947 -246.41411583 904.84383501 -254.65937805 906.68530273 C-256.38861275 907.07151543 -256.38861275 907.07151543 -258.15278149 907.4655304 C-260.37985141 907.96243366 -262.6070809 908.45862237 -264.83448505 908.95402527 C-269.71827235 910.04054865 -274.59989997 911.13429185 -279.47543335 912.25732422 C-280.30694003 912.44717392 -281.13844671 912.63702362 -281.99515057 912.83262634 C-283.50328574 913.17743131 -285.0104996 913.52630676 -286.51648426 913.88038635 C-290.07635626 914.69012774 -293.34682218 915.18394502 -297 915 C-294.3927508 894.05128976 -290.85595254 873.24451325 -287.44444418 852.41563416 C-286.54967598 846.9484631 -285.65834371 841.48073179 -284.76663208 836.01306152 C-283.23171177 826.60405624 -281.69486386 817.19536759 -280.15667725 807.78689575 C-277.73045517 792.94623963 -275.30837103 778.10490979 -272.88720703 763.26342773 C-272.68423453 762.01926216 -272.48126202 760.77509659 -272.27213883 759.49322903 C-271.44745913 754.43816771 -270.62278497 749.38310549 -269.79815161 744.32803661 C-268.54747921 736.66141883 -267.29651265 728.99484912 -266.04531682 721.32831675 C-258.1219721 672.77855176 -250.2298239 624.22375038 -242.35209227 575.66656524 C-241.21834694 568.6783941 -240.0843024 561.69027158 -238.95007324 554.70217896 C-231.60893113 509.47205112 -224.28390274 464.23938433 -217 419 C-224.06845463 420.13019568 -231.07851291 421.36453863 -238.05810547 422.95410156 C-238.89138493 423.14099297 -239.72466438 423.32788437 -240.58319473 423.52043915 C-243.34523569 424.14072408 -246.10619576 424.76568787 -248.8671875 425.390625 C-250.87719971 425.84293673 -252.88728287 426.29493323 -254.89743042 426.74664307 C-259.25052456 427.72546889 -263.60315659 428.70631558 -267.95544434 429.6887207 C-275.038851 431.28749419 -282.12333015 432.88147879 -289.20800781 434.47460938 C-291.68750174 435.03221882 -294.16699391 435.5898361 -296.64648438 436.14746094 C-297.89496155 436.42823486 -299.14343872 436.70900879 -300.42974854 436.99829102 C-304.30480358 437.86994516 -308.17976064 438.74203404 -312.0546875 439.61425781 C-330.65630621 443.80111078 -349.26072597 447.97534814 -367.8671875 452.140625 C-368.53432195 452.28997167 -369.20145641 452.43931834 -369.88880706 452.59319067 C-378.09272036 454.42969365 -386.29675093 456.26567247 -394.50081259 458.10151255 C-401.49824807 459.66737681 -408.49555955 461.23379482 -415.49286067 462.80025935 C-443.71634307 469.11854212 -471.94034733 475.43449074 -500.16480631 481.74840951 C-505.62154854 482.96910842 -511.07827325 484.18988562 -516.5349884 485.41070557 C-518.86429166 485.9318327 -521.19359507 486.45295919 -523.52289855 486.97408533 C-525.07178908 487.32061319 -526.62067927 487.66714252 -528.16956913 488.01367331 C-536.58367349 489.89613714 -544.99783088 491.77836328 -553.41213989 493.65991211 C-562.26705272 495.63999162 -571.12188011 497.62045272 -579.9765625 499.6015625 C-580.68855104 499.76085834 -581.40053958 499.92015417 -582.13410354 500.08427715 C-600.85952711 504.27402748 -619.58172565 508.47770952 -638.29881477 512.70457077 C-641.58180977 513.44589252 -644.864914 514.18672841 -648.14805603 514.92739868 C-650.23111256 515.39738688 -652.31416621 515.86738783 -654.3972168 516.33740234 C-655.39638091 516.56284792 -656.39554502 516.7882935 -657.42498684 517.02057076 C-663.15248604 518.31338893 -668.87905877 519.61021457 -674.6049118 520.91030312 C-678.00915065 521.68244796 -681.41413721 522.45125277 -684.81933975 523.21913528 C-686.3616006 523.5677352 -687.90352142 523.91784358 -689.44506454 524.26960373 C-691.51094255 524.74091031 -693.57792155 525.20703999 -695.64526367 525.671875 C-696.78613937 525.9306543 -697.92701508 526.18943359 -699.10246277 526.45605469 C-702 527 -702 527 -706 527 C-706 512.81 -706 498.62 -706 484 C-701.73389099 482.2935564 -697.69995592 481.14359394 -693.24658203 480.16943359 C-692.46774469 479.99549702 -691.68890736 479.82156044 -690.88646889 479.64235306 C-688.26111646 479.05707655 -685.63447016 478.47782587 -683.0078125 477.8984375 C-681.09970575 477.47421603 -679.19168829 477.04959271 -677.28375244 476.62460327 C-673.11667338 475.69718933 -668.94902944 474.77237137 -664.78094482 473.8494873 C-658.00746357 472.34960118 -651.235297 470.84384007 -644.46337891 469.33691406 C-642.07797363 468.80614686 -639.69256712 468.27538522 -637.30715942 467.74462891 C-636.09834232 467.47565796 -634.88952522 467.20668701 -633.6440773 466.92956543 C-629.86037519 466.08788188 -626.07654873 465.24675931 -622.29269409 464.40576172 C-602.30076592 459.96166757 -582.31347849 455.49699954 -562.328125 451.0234375 C-561.57289244 450.85438809 -560.81765988 450.68533869 -560.03954148 450.51116657 C-551.58557429 448.61881477 -543.13170783 446.72601319 -534.67788696 444.83300781 C-520.73746026 441.71143478 -506.79665246 438.59156428 -492.85585976 435.47162628 C-489.85443003 434.79990783 -486.85300464 434.12817001 -483.85158348 433.45641327 C-466.46533749 429.56514974 -449.07887917 425.67484082 -431.69140625 421.7890625 C-430.83791721 421.59832279 -429.98442818 421.40758308 -429.10507584 421.21106339 C-421.81453174 419.58180469 -414.52392622 417.95282102 -407.23327637 416.32403564 C-384.97332435 411.35089406 -362.71526999 406.36930673 -340.45816994 401.38341904 C-335.88535523 400.35905514 -331.31251486 399.33480582 -326.7396698 398.31057739 C-324.43959181 397.7953992 -322.13951415 397.28021955 -319.83943665 396.76503921 C-318.30060744 396.42036654 -316.76177787 396.07569545 -315.22294796 395.73102593 C-306.11824186 393.69172332 -297.01364416 391.65193824 -287.9092229 389.61136436 C-282.16903984 388.32485225 -276.42873941 387.03886467 -270.6883561 385.75324631 C-267.34609354 385.00468928 -264.00388493 384.2558936 -260.66182518 383.50643158 C-253.54878247 381.91156873 -246.43486139 380.32078057 -239.31900787 378.7385025 C-237.08100366 378.24053089 -234.843272 377.74133296 -232.60579681 377.24098969 C-229.39291609 376.52340077 -226.17883971 375.81144066 -222.96435547 375.10107422 C-222.01043474 374.88706026 -221.05651402 374.6730463 -220.0736866 374.45254707 C-218.75884946 374.16386662 -218.75884946 374.16386662 -217.41744995 373.86935425 C-216.65666578 373.70050657 -215.89588161 373.5316589 -215.11204338 373.35769463 C-213 373 -213 373 -209 373 C-208.89044617 372.16771774 -208.89044617 372.16771774 -208.77867913 371.3186217 C-206.93760718 357.40306471 -204.8669536 343.54197882 -202.59277344 329.69116211 C-202.26174535 327.66153947 -201.93097357 325.63187501 -201.60043335 323.60217285 C-200.89337809 319.26390912 -200.18453679 314.92594259 -199.47423553 310.58820915 C-198.33283251 303.61775133 -197.19553873 296.64662639 -196.05865479 289.6754303 C-194.24075747 278.5313968 -192.42010017 267.38781622 -190.59829736 256.24442059 C-187.39665306 236.66042757 -184.19976761 217.07565725 -181.00346422 197.49079192 C-180.02211898 191.4778753 -179.0405169 185.46500083 -178.05833435 179.45222092 C-173.85168062 153.69909668 -169.66024579 127.94367825 -165.51757812 102.18017578 C-165.16101736 99.96365766 -164.80445633 97.74713957 -164.44789505 95.53062153 C-162.94019961 86.15567061 -161.43423488 76.78045145 -159.9348011 67.40417528 C-159.33726772 63.6703424 -158.73781874 59.93681877 -158.13792706 56.20336413 C-157.86208014 54.48350029 -157.58714545 52.76348986 -157.31318378 51.04332471 C-156.94202478 48.71308985 -156.56784628 46.38335935 -156.19293213 44.0537262 C-155.98523319 42.75492806 -155.77753426 41.45612993 -155.56354141 40.11797428 C-155 37 -155 37 -154 34 C-151.46827619 33.15331659 -149.0814056 32.52431161 -146.48242188 31.96337891 C-145.68427567 31.78024517 -144.88612946 31.59711143 -144.063797 31.40842819 C-141.36815951 30.79342843 -138.66864217 30.19758418 -135.96875 29.6015625 C-134.04235759 29.16641706 -132.11621558 28.7301618 -130.19030762 28.2928772 C-124.91171951 27.0981174 -119.62946277 25.92035946 -114.34637451 24.74568176 C-109.84006261 23.74152799 -105.33595652 22.72767312 -100.83183289 21.71375656 C-87.81882035 18.78460531 -74.79990032 15.88249814 -61.77832031 12.99169922 C-55.60566569 11.6213162 -49.43412509 10.2459809 -43.26282501 8.86951256 C-38.45768695 7.79844734 -33.65190798 6.73028145 -28.84593201 5.66298294 C-26.56507834 5.15601274 -24.28444598 4.64804573 -22.00404358 4.13904953 C-18.86077938 3.43782311 -15.71665459 2.74059629 -12.57226562 2.04443359 C-11.64072662 1.83572632 -10.70918762 1.62701904 -9.74942017 1.4119873 C-8.89870941 1.22449921 -8.04799866 1.03701111 -7.17150879 0.84384155 C-6.43369423 0.67984549 -5.69587967 0.51584942 -4.93570709 0.34688377 C-3 0 -3 0 0 0 Z M205.30664062 362.99389648 C204.33223022 363.21089706 203.35781982 363.42789764 202.35388184 363.651474 C201.29866333 363.88894852 200.24344482 364.12642303 199.15625 364.37109375 C198.07621704 364.61287857 196.99618408 364.85466339 195.88342285 365.10377502 C193.59668352 365.61637096 191.310191 366.13006899 189.02392578 366.64477539 C185.51542913 367.43402914 182.00582496 368.21821 178.49609375 369.00195312 C176.27857689 369.49969295 174.06112669 369.99772984 171.84375 370.49609375 C170.26092224 370.84926918 170.26092224 370.84926918 168.64611816 371.20957947 C167.67170776 371.42973221 166.69729736 371.64988495 165.69335938 371.87670898 C164.40335022 372.16649879 164.40335022 372.16649879 163.08728027 372.46214294 C160.96042882 372.93233614 160.96042882 372.93233614 159 374 C159 386.87 159 399.74 159 413 C175.34453825 409.56130274 175.34453825 409.56130274 191.66308594 406.00619507 C192.81593079 405.75061892 192.81593079 405.75061892 193.99206543 405.48987961 C194.77843384 405.31532871 195.56480225 405.14077782 196.375 404.9609375 C197.19230591 404.77954853 198.00961182 404.59815956 198.85168457 404.41127396 C203.1478765 403.45732047 207.44369349 402.50169715 211.73925781 401.54492188 C215.27430508 400.7579199 218.81014218 399.97461346 222.34667969 399.19433594 C226.66216373 398.24217409 230.97624248 397.28388325 235.28936768 396.32109451 C236.92198162 395.95772756 238.55507726 395.59651772 240.18865967 395.23752975 C242.45526052 394.73896347 244.71996483 394.23253038 246.984375 393.72412109 C248.27053711 393.43862396 249.55669922 393.15312683 250.88183594 392.85897827 C254.13082609 392.1394171 254.13082609 392.1394171 257 390 C246.60294029 383.38596683 236.17206105 376.82596041 225.69500732 370.33935547 C224.52269532 369.61272151 223.35134828 368.88452843 222.18096924 368.15478516 C220.52828013 367.12490876 218.87164299 366.10137618 217.21484375 365.078125 C215.77806274 364.18722168 215.77806274 364.18722168 214.31225586 363.27832031 C210.9557347 361.4226826 208.94004359 362.18104404 205.30664062 362.99389648 Z M112.04107666 383.86643982 C111.18868408 384.0585202 110.3362915 384.25060059 109.45806885 384.44850159 C108.0445816 384.7687455 108.0445816 384.7687455 106.60253906 385.09545898 C105.6155603 385.31818481 104.62858154 385.54091064 103.61169434 385.77038574 C100.32944954 386.51131046 97.04754353 387.25372533 93.765625 387.99609375 C91.49219214 388.50947445 89.21873397 389.02274311 86.94525146 389.53590393 C80.94311499 390.89091456 74.94124546 392.24710364 68.93945312 393.6036377 C59.34590198 395.7718996 49.75206487 397.93889411 40.15801239 400.1049366 C36.80266375 400.8627287 33.44749781 401.62132576 30.09234619 402.37998962 C28.03325059 402.8450719 25.97414856 403.31012571 23.91503906 403.77514648 C22.5136972 404.09235405 22.5136972 404.09235405 21.08404541 404.41596985 C17.06415588 405.32311679 13.04760507 406.2230167 9 407 C10.65734847 411.34922018 13.91152396 414.09136688 17.1875 417.25 C20.85146962 420.84184226 24.47560081 424.40910397 27.8125 428.3125 C28.30914658 428.87046768 28.80579315 429.42843536 29.31748962 430.00331116 C31 432 31 432 32.44288635 434.21214294 C34.45904126 436.88870828 36.03136371 438.40614967 39 440 C45.08492314 440.07866762 50.71693754 438.57008263 56.58984375 437.09765625 C58.30146654 436.70351528 60.01401844 436.31338948 61.72743225 435.92710876 C66.22382736 434.90161068 70.70494365 433.82018172 75.18530273 432.72705078 C79.75912435 431.62264712 84.34599981 430.57549627 88.93164062 429.52148438 C95.60949292 427.97586416 102.28322847 426.41439502 108.94506836 424.80102539 C109.64891159 424.63308975 110.35275482 424.46515411 111.07792664 424.29212952 C114.31155272 423.69380747 114.31155272 423.69380747 117 422 C117.08865208 419.1156618 117.11521296 416.25537842 117.09765625 413.37109375 C117.0962413 412.50686295 117.09482635 411.64263214 117.09336853 410.75221252 C117.08775239 407.98060708 117.07519719 405.2090812 117.0625 402.4375 C117.05748708 400.5631522 117.05292381 398.68880315 117.04882812 396.81445312 C117.03777772 392.20960456 117.0205023 387.60481579 117 383 C115.30357051 383 113.69142679 383.49347464 112.04107666 383.86643982 Z M-55.625 421.3125 C-56.67429687 421.52583984 -57.72359375 421.73917969 -58.8046875 421.95898438 C-59.81015625 422.17490234 -60.815625 422.39082031 -61.8515625 422.61328125 C-62.76760254 422.80704346 -63.68364258 423.00080566 -64.62744141 423.20043945 C-67.27090919 424.09129734 -68.23302081 424.87909624 -70 427 C-70.67468581 429.89813684 -71.18886843 432.66980377 -71.60546875 435.60546875 C-71.73440018 436.44467361 -71.8633316 437.28387848 -71.99617004 438.14851379 C-72.40489138 440.82656942 -72.7963828 443.50682254 -73.1875 446.1875 C-73.46175895 448.00472845 -73.73713623 449.82178849 -74.01367188 451.63867188 C-74.68876877 456.09059847 -75.34842573 460.54457248 -76 465 C-68.70593512 464.26980411 -61.67283263 462.68311101 -54.53125 461.05859375 C-53.25519897 460.77146011 -51.97914795 460.48432648 -50.66442871 460.18849182 C-47.2968842 459.43069115 -43.93038206 458.6683579 -40.56408691 457.9050293 C-37.11887132 457.12466525 -33.67267511 456.34865692 -30.2265625 455.57226562 C-23.48341688 454.05240378 -16.74136399 452.52774433 -10 451 C-11.48268577 447.89335333 -12.97298018 445.79909693 -15.44921875 443.390625 C-16.13306641 442.71773437 -16.81691406 442.04484375 -17.52148438 441.3515625 C-18.23626953 440.65804688 -18.95105469 439.96453125 -19.6875 439.25 C-25.04505098 434.02651193 -30.15640379 428.70604246 -35 423 C-36.95716757 420.5366901 -36.95716757 420.5366901 -39 419 C-44.6805389 418.61233091 -50.10887562 420.12120829 -55.625 421.3125 Z M300.92153931 424.02934265 C299.89606491 424.25771317 298.87059052 424.48608368 297.81404114 424.72137451 C296.1341938 425.10232269 296.1341938 425.10232269 294.42041016 425.4909668 C292.64374718 425.88856956 292.64374718 425.88856956 290.83119202 426.29420471 C287.57934435 427.02283186 284.32839393 427.75524846 281.07778215 428.48935676 C277.65477896 429.26146344 274.23069658 430.02875447 270.80673218 430.79658508 C264.29805059 432.2569464 257.79036698 433.72170626 251.28302038 435.18800336 C243.96579676 436.83655112 236.64742973 438.47999347 229.32897878 440.12308252 C205.8798036 445.38817849 182.43339698 450.66503532 159 456 C159 469.2 159 482.4 159 496 C174.86861288 492.66471067 174.86861288 492.66471067 190.69873047 489.16601562 C191.82581421 488.91160706 192.95289795 488.65719849 194.11413574 488.39508057 C197.78211905 487.566789 201.44965651 486.7365418 205.1171875 485.90625 C207.74314758 485.31282927 210.36913203 484.71951735 212.99514771 484.12634277 C219.19671473 482.72525758 225.39795883 481.32274858 231.59908497 479.9197135 C238.45355882 478.36893126 245.30840697 476.81980693 252.16328382 475.27080727 C286.44449657 467.52407132 320.7226003 459.76358811 355 452 C352.22240712 449.15557641 349.62755977 446.97831486 346.2109375 444.93359375 C345.27741455 444.37043457 344.3438916 443.80727539 343.38208008 443.22705078 C342.38974365 442.63649902 341.39740723 442.04594727 340.375 441.4375 C338.30308332 440.19451384 336.23147262 438.95101752 334.16015625 437.70703125 C333.12648926 437.08779785 332.09282227 436.46856445 331.02783203 435.83056641 C328.20797144 434.12573535 325.41047199 432.39086383 322.62109375 430.63671875 C321.80527832 430.12633057 320.98946289 429.61594238 320.14892578 429.09008789 C318.62361645 428.13362172 317.10224774 427.17083409 315.58544922 426.20092773 C314.90369629 425.77626221 314.22194336 425.35159668 313.51953125 424.9140625 C312.93276611 424.5423291 312.34600098 424.1705957 311.74145508 423.78759766 C308.1668174 422.17091727 304.5775674 423.2073821 300.92153931 424.02934265 Z M109.98754883 466.82617188 C109.18694534 467.00635864 108.38634186 467.18654541 107.56147766 467.37219238 C106.70201035 467.5690564 105.84254303 467.76592041 104.95703125 467.96875 C104.0734343 468.1685144 103.18983734 468.36827881 102.27946472 468.57409668 C99.45645093 469.2130542 96.63447497 469.85647166 93.8125 470.5 C91.89915519 470.93388778 89.98574451 471.36748513 88.07226562 471.80078125 C83.38073916 472.86381853 78.69013862 473.93085691 74 475 C75.52603415 478.21630141 77.09800771 480.28769299 79.6875 482.75 C82.31784633 485.30989062 84.8177527 487.88527382 87.1875 490.6875 C88.45138558 492.13111243 89.723523 493.56750914 91 495 C91.47630859 495.53979492 91.95261719 496.07958984 92.44335938 496.63574219 C94.08265876 498.46972086 95.75596259 500.26723775 97.4375 502.0625 C98.225802 502.95811646 98.225802 502.95811646 99.0300293 503.87182617 C101.9988876 507.01670658 101.9988876 507.01670658 106.01611328 508.21435547 C110.08313061 507.78790538 113.13312137 506.54675145 117 505 C117 492.13 117 479.26 117 466 C114.40411474 466 112.48764857 466.25832588 109.98754883 466.82617188 Z M9.86376953 489.11132812 C8.8582756 489.33566025 7.85278168 489.55999237 6.81681824 489.79112244 C3.50409544 490.5317877 0.19348194 491.28146475 -3.1171875 492.03125 C-5.41777266 492.54747254 -7.71848457 493.06313055 -10.01931763 493.57824707 C-16.06711477 494.93383524 -22.11316088 496.29708041 -28.15887451 497.66192627 C-34.33143976 499.05398496 -40.50562996 500.43879663 -46.6796875 501.82421875 C-58.78805985 504.54238813 -70.89459475 507.26864927 -83 510 C-83.6323142 513.2808477 -84.26169879 516.5622513 -84.890625 519.84375 C-85.06674316 520.75737305 -85.24286133 521.67099609 -85.42431641 522.61230469 C-86.62637312 528.8940204 -87.72948547 535.18630322 -88.75 541.5 C-88.87681152 542.27722412 -89.00362305 543.05444824 -89.13427734 543.85522461 C-89.72226405 547.61481328 -90.05428628 551.19996008 -90 555 C-75.52693117 551.87569635 -61.15222016 548.38941268 -46.77734375 544.84375 C-44.37761754 544.25350365 -41.97784136 543.66346043 -39.57801819 543.0736084 C-33.30596595 541.53155053 -27.03446564 539.98726083 -20.76312256 538.44232178 C-10.72665699 535.97015419 -0.68943886 533.50104612 9.34795952 531.03266907 C12.82032319 530.17835193 16.29239053 529.32283906 19.76441956 528.46716309 C31.49467146 525.57899409 43.23232877 522.73200124 55 520 C53.23578175 516.24110031 50.88394106 513.44671114 48.0625 510.4375 C47.57958496 509.91591309 47.09666992 509.39432617 46.59912109 508.85693359 C42.30994758 504.2569303 37.86218656 499.82768924 33.37109375 495.42578125 C31.44605792 493.45634591 29.80923695 491.52490153 28.1875 489.3125 C26.23888381 486.75331915 26.23888381 486.75331915 23.49679565 486.72351074 C18.83593391 487.09204192 14.41622806 488.07146944 9.86376953 489.11132812 Z " fill="#FCB503" transform="translate(706,361)"/>
<path d="M0 0 C1.23785245 0.83790479 2.46100903 1.69776754 3.671875 2.57421875 C5.15681085 3.58962651 6.64255244 4.60385649 8.12890625 5.6171875 C8.95729004 6.19130371 9.78567383 6.76541992 10.63916016 7.35693359 C15.53619952 10.70898668 20.5207613 13.92857902 25.49230957 17.16854858 C28.6483711 19.22772655 31.79847503 21.29597978 34.94921875 23.36328125 C41.76929555 27.8357733 48.59474981 32.29999195 55.421875 36.76171875 C65.20743422 43.15757764 74.9874791 49.56179942 84.76513672 55.96972656 C93.31402208 61.57220649 101.86618736 67.16962916 110.421875 72.76171875 C120.20739396 79.15763934 129.98747902 85.56179937 139.76513672 91.96972656 C148.31402208 97.57220649 156.86618736 103.16962916 165.421875 108.76171875 C175.20739396 115.15763934 184.98747902 121.56179937 194.76513672 127.96972656 C203.31402208 133.57220649 211.86618736 139.16962916 220.421875 144.76171875 C230.20170366 151.1539201 239.97639283 157.55391521 249.74801636 163.95864868 C256.36700463 168.29698759 262.98745005 172.63305486 269.61328125 176.9609375 C270.19568573 177.34142242 270.77809021 177.72190735 271.37814331 178.11392212 C274.1175132 179.90348995 276.85724453 181.69249624 279.59765625 183.48046875 C284.67638862 186.79759892 289.74117228 190.13400054 294.78686523 193.5012207 C295.84791977 194.20914261 296.9089743 194.91706451 298.00218201 195.6464386 C298.80068069 196.17948105 299.59917938 196.7125235 300.421875 197.26171875 C300.17225787 199.00959171 299.92263741 200.7574642 299.67300415 202.50533485 C299.44473018 204.10371391 299.21647999 205.70209636 298.98825073 207.3004818 C298.3297464 211.91177193 297.67064706 216.522976 297.01062012 221.13404846 C295.59864102 231.00187789 294.1932537 240.87054625 292.8046875 250.74169922 C291.6103275 259.22783545 290.39374521 267.71052559 289.15562439 276.19038963 C288.45544687 280.99143745 287.76649781 285.79363888 287.09912109 290.59936523 C286.43504771 295.37816843 285.74486551 300.15251406 285.03587341 304.92485237 C284.77448901 306.71567184 284.52250506 308.50789114 284.28041077 310.30142021 C283.94571731 312.76975167 283.57774232 315.23087691 283.20117188 317.69311523 C283.1106102 318.42050903 283.02004852 319.14790283 282.92674255 319.89733887 C282.59655762 321.91868591 282.59655762 321.91868591 281.421875 325.26171875 C277.22826013 328.18693695 272.27095707 329.34224308 267.38134766 330.71582031 C266.1949052 331.05683619 266.1949052 331.05683619 264.98449421 331.40474129 C262.35320765 332.15953828 259.71960845 332.90591302 257.0859375 333.65234375 C255.20684435 334.18962617 253.32790599 334.72745019 251.44911194 335.26577759 C247.42459167 336.41772519 243.39904751 337.56599556 239.37265015 338.71136475 C232.98481144 340.52851195 226.59928061 342.35367415 220.21411133 344.18017578 C212.57039964 346.36616465 204.92618205 348.55036564 197.28124714 350.73207283 C179.84873944 355.70720385 162.42542223 360.71405306 145.00408936 365.72814941 C140.08189574 367.1447642 135.15939459 368.56030814 130.23681641 369.97558594 C129.42647949 370.20856636 128.61614258 370.44154678 127.78125 370.68158722 C126.15222443 371.14994883 124.52319865 371.61830973 122.89417267 372.08666992 C102.06822901 378.07459391 81.24331053 384.06608332 60.41833496 390.05737305 C28.14725106 399.34166271 -4.1254926 408.62017605 -36.39846802 417.89788818 C-48.13417614 421.27162587 -59.86984003 424.64551738 -71.60546875 428.01953125 C-72.42979904 428.2565274 -73.25412933 428.49352356 -74.10343933 428.73770142 C-79.92833607 430.41236857 -85.7532308 432.08704275 -91.578125 433.76171875 C-98.23567566 435.67578619 -104.89322741 437.58984986 -111.55078125 439.50390625 C-112.37497055 439.74086212 -113.19915985 439.97781799 -114.04832458 440.22195435 C-125.79602761 443.59943421 -137.54377979 446.97674304 -149.29156113 450.3539505 C-156.86625998 452.53150201 -164.44094656 454.70909623 -172.015625 456.88671875 C-173.26211319 457.24506805 -173.26211319 457.24506805 -174.53378296 457.61065674 C-200.54454802 465.08845592 -226.5544517 472.5692451 -252.5637207 480.05224609 C-269.06169249 484.79878467 -285.55990834 489.54447167 -302.05890274 494.28745461 C-304.60803512 495.02026902 -307.15715299 495.75313394 -309.70626831 496.48600769 C-317.31926529 498.67468768 -324.9323645 500.86300905 -332.54596901 503.04957485 C-336.68567576 504.23849426 -340.82528838 505.42774112 -344.96484375 506.6171875 C-346.18480734 506.96772407 -346.18480734 506.96772407 -347.42941666 507.32534218 C-358.87911502 510.61592954 -370.32382371 513.92340528 -381.76516914 517.24291229 C-386.41285553 518.59082178 -391.06129851 519.93612038 -395.70973492 521.28144073 C-400.06170293 522.54137456 -404.4122733 523.80599363 -408.76183605 525.07420444 C-410.77540711 525.660424 -412.7896566 526.24423713 -414.804245 526.82695007 C-417.23880146 527.53116961 -419.67224071 528.23926777 -422.10432434 528.95198059 C-423.17043442 529.25907455 -424.23654449 529.56616852 -425.33496094 529.88256836 C-426.71841705 530.28480873 -426.71841705 530.28480873 -428.12982178 530.69517517 C-430.578125 531.26171875 -430.578125 531.26171875 -434.578125 531.26171875 C-433.97996441 522.71872512 -432.94335218 514.30843102 -431.64453125 505.84570312 C-431.4509201 504.56290466 -431.25730896 503.2801062 -431.05783081 501.95843506 C-430.53255506 498.47908952 -430.00235327 495.00051181 -429.47108078 491.52207756 C-428.91368289 487.86753961 -428.36057319 484.21235242 -427.80688477 480.55725098 C-426.87821143 474.43098027 -425.9464699 468.30518263 -425.01269531 462.1796875 C-423.93383805 455.1023105 -422.85914496 448.02431117 -421.78680897 440.94594336 C-420.64207448 433.38992979 -419.49440902 425.83436359 -418.34583664 418.27893257 C-418.01589629 416.1072544 -417.68649427 413.93549513 -417.35720825 411.76371765 C-416.74436651 407.72298201 -416.12823484 403.68275478 -415.51171875 399.64257812 C-415.3298703 398.44151428 -415.14802185 397.24045044 -414.96066284 396.00299072 C-414.79245026 394.90416565 -414.62423767 393.80534058 -414.45092773 392.67321777 C-414.30566147 391.71907738 -414.1603952 390.76493698 -414.01072693 389.78188324 C-413.63099138 387.56969697 -413.15895478 385.42854432 -412.578125 383.26171875 C-395.29739617 378.15266688 -377.86728035 373.64652693 -360.41952515 369.1522522 C-352.327642 367.06788175 -344.23807005 364.97456606 -336.14834023 362.88185692 C-334.26125723 362.39371974 -332.37415047 361.9056744 -330.48702049 361.41771889 C-310.47273155 356.24244274 -290.4715434 351.0175771 -270.47275162 345.78278732 C-262.1891255 343.61461495 -253.90520421 341.44757102 -245.62109375 339.28125 C-244.69109243 339.03805086 -243.76109112 338.79485172 -242.80290794 338.54428291 C-219.40103877 332.42551969 -195.98950855 326.34395452 -172.578125 320.26171875 C-141.15524964 312.09786325 -109.73742548 303.91515102 -78.328125 295.69921875 C-43.41487973 286.56697897 -8.49569615 277.4577467 26.42944336 268.37109375 C29.40455143 267.59701198 32.37965648 266.82291865 35.35475731 266.04880905 C37.31710548 265.53821456 39.27945821 265.0276376 41.24181557 264.5170784 C54.47100985 261.0748913 67.69756355 257.6227493 80.92191124 254.16199112 C86.09337599 252.80902623 91.26532424 251.45791072 96.43729115 250.10686684 C101.23134436 248.85429487 106.02456534 247.59860127 110.817173 246.34051037 C113.71596772 245.58035059 116.61553492 244.82317315 119.5153389 244.06687355 C121.4783622 243.55390371 123.44041451 243.03722256 125.4024353 242.52043152 C127.13549423 242.06933769 127.13549423 242.06933769 128.90356445 241.60913086 C129.90418411 241.34700302 130.90480377 241.08487518 131.93574524 240.81480408 C134.421875 240.26171875 134.421875 240.26171875 137.421875 240.26171875 C136.1507925 236.44847124 134.88258533 236.0387176 131.48046875 233.99609375 C130.43415283 233.36106934 129.38783691 232.72604492 128.30981445 232.07177734 C127.15968524 231.38506222 126.00953828 230.69837681 124.859375 230.01171875 C123.07268601 228.93179777 121.28788113 227.84880449 119.5030365 226.76583862 C118.28024893 226.02433787 117.05682145 225.28389141 115.83277893 224.54446411 C109.92535387 220.97406875 104.07727747 217.31161602 98.234375 213.63671875 C90.29379543 208.65508853 82.31375375 203.74455691 74.296875 198.88671875 C66.52380917 194.17474761 58.8348062 189.3663464 51.2109375 184.41748047 C31.18297709 171.47911194 10.85505962 158.98490645 -9.71508789 146.9296875 C-16.63219894 142.86042463 -23.43551943 138.63045482 -30.19824219 134.31005859 C-35.08044598 131.19140053 -40.00717088 128.18746809 -45.05859375 125.34765625 C-45.56003906 124.98929688 -46.06148437 124.6309375 -46.578125 124.26171875 C-46.578125 123.60171875 -46.578125 122.94171875 -46.578125 122.26171875 C-47.31442139 121.98263672 -48.05071777 121.70355469 -48.80932617 121.41601562 C-51.32942912 120.36539868 -53.54599897 119.20155651 -55.87890625 117.79296875 C-56.68303955 117.30932861 -57.48717285 116.82568848 -58.31567383 116.32739258 C-59.16540771 115.81072021 -60.0151416 115.29404785 -60.890625 114.76171875 C-61.77709717 114.22635498 -62.66356934 113.69099121 -63.5769043 113.1394043 C-69.7066063 109.42725104 -75.79453922 105.65141133 -81.85986328 101.83520508 C-86.13043529 99.15202495 -90.43282202 96.53055012 -94.765625 93.94921875 C-115.88727326 81.35088244 -136.68060968 68.17520662 -157.453125 55.01171875 C-166.43093572 49.32317972 -175.49251044 43.77604635 -184.578125 38.26171875 C-181.21158943 36.0173617 -178.1066556 35.28351867 -174.23046875 34.4140625 C-173.11028351 34.15550476 -173.11028351 34.15550476 -171.96746826 33.89172363 C-169.48496559 33.32102314 -167.00040511 32.75991385 -164.515625 32.19921875 C-162.76337655 31.79913362 -161.01118017 31.39882035 -159.2590332 30.99829102 C-145.73117214 27.91926445 -132.16860267 25.00874596 -118.59616089 22.13375854 C-106.20813672 19.50803064 -93.86972908 16.72997663 -81.55593872 13.7767334 C-67.36789325 10.37949032 -53.11149048 7.3242236 -38.8359375 4.31835938 C-37.13799628 3.95975165 -35.44007894 3.60103086 -33.7421875 3.2421875 C-32.93154846 3.07186005 -32.12090942 2.90153259 -31.28570557 2.7260437 C-26.79002103 1.77106057 -22.35281565 0.69763643 -17.9140625 -0.5 C-11.35884112 -2.14943761 -6.21649546 -3.02002236 0 0 Z " fill="#FDFDFD" transform="translate(1062.578125,660.73828125)"/>
<path d="M0 0 C3.67423363 5.24890519 2.8815694 10.15293744 1.80517578 16.31298828 C1.15771655 19.67880887 0.46475796 23.03362464 -0.24780273 26.38623047 C-1.36555675 31.68735409 -2.25396544 36.92455605 -2.8125 42.3125 C-3.58152912 49.64325669 -4.65317748 56.90841429 -5.8125 64.1875 C-5.97878906 65.24670654 -6.14507813 66.30591309 -6.31640625 67.3972168 C-6.48011719 68.41211182 -6.64382813 69.42700684 -6.8125 70.47265625 C-6.956875 71.36992432 -7.10125 72.26719238 -7.25 73.19165039 C-7.68251304 75.44713831 -8.21594551 77.68344662 -8.79150391 79.90673828 C-9.91724035 84.32510111 -10.55081974 88.75368886 -11.1484375 93.26953125 C-12.88286539 105.85558805 -14.84842962 118.40305416 -16.82910156 130.95239258 C-17.24002169 133.55955877 -17.64958272 136.16689093 -18.05664062 138.7746582 C-18.65164164 142.58337303 -19.25101237 146.39137544 -19.8515625 150.19921875 C-20.12499985 151.95512581 -20.12499985 151.95512581 -20.40396118 153.74650574 C-20.65960342 155.35638115 -20.65960342 155.35638115 -20.92041016 156.9987793 C-21.06902496 157.94359665 -21.21763977 158.888414 -21.37075806 159.86186218 C-21.8125 162.125 -21.8125 162.125 -22.8125 164.125 C-23.26586022 166.99832356 -23.67633189 169.86743717 -24.0625 172.75 C-25.26690113 181.474553 -26.57111813 190.1808441 -27.93481445 198.88183594 C-28.09167943 199.88419257 -28.09167943 199.88419257 -28.2517134 200.90679884 C-31.44365306 221.28689591 -34.75726358 241.64765114 -38.05767226 262.010396 C-38.8029362 266.60911618 -39.54765458 271.20792465 -40.29239255 275.80673003 C-42.05876435 286.71406117 -43.82607852 297.62123931 -45.59399414 308.52832031 C-47.19014425 318.37579898 -48.78518476 328.22345657 -50.37915039 338.07128906 C-67.50854714 443.89762774 -67.50854714 443.89762774 -75.8125 493.125 C-89.42540481 496.96825436 -103.21718421 499.98755122 -117.01953125 503.0625 C-119.55577887 503.6298639 -122.09196656 504.19749579 -124.62809753 504.76538086 C-130.59803251 506.10146951 -136.56856885 507.43483803 -142.53941315 508.76685619 C-149.27255699 510.2691011 -156.00488926 511.77496717 -162.737167 513.28108788 C-170.98178235 515.12544947 -179.22661583 516.96883501 -187.47187805 518.81030273 C-188.62470119 519.06777786 -189.77752432 519.32525299 -190.96528149 519.5905304 C-193.19235141 520.08743366 -195.4195809 520.58362237 -197.64698505 521.07902527 C-202.53077235 522.16554865 -207.41239997 523.25929185 -212.28793335 524.38232422 C-213.11944003 524.57217392 -213.95094671 524.76202362 -214.80765057 524.95762634 C-216.31578574 525.30243131 -217.8229996 525.65130676 -219.32898426 526.00538635 C-222.88885626 526.81512774 -226.15932218 527.30894502 -229.8125 527.125 C-227.2052508 506.17628976 -223.66845254 485.36951325 -220.25694418 464.54063416 C-219.36217598 459.0734631 -218.47084371 453.60573179 -217.57913208 448.13806152 C-216.04421177 438.72905624 -214.50736386 429.32036759 -212.96917725 419.91189575 C-210.54295517 405.07123963 -208.12087103 390.22990979 -205.69970703 375.38842773 C-205.49673453 374.14426216 -205.29376202 372.90009659 -205.08463883 371.61822903 C-204.25995913 366.56316771 -203.43528497 361.50810549 -202.61065161 356.45303661 C-201.35997921 348.78641883 -200.10901265 341.11984912 -198.85781682 333.45331675 C-190.9344721 284.90355176 -183.0423239 236.34875038 -175.16459227 187.79156524 C-174.03084694 180.8033941 -172.89680389 173.81527134 -171.76257324 166.82717896 C-170.3821412 158.32218724 -169.00199989 149.81714841 -167.62220526 141.31205326 C-166.89744153 136.84462467 -166.17256596 132.3772143 -165.4473877 127.90985298 C-162.66186874 110.74951139 -159.88199017 93.58834447 -157.13495135 76.42179549 C-156.77251163 74.15752739 -156.40967136 71.89332389 -156.04667091 69.62914562 C-155.87217983 68.54069582 -155.87217983 68.54069582 -155.69416368 67.43025714 C-155.46426619 65.99621073 -155.23435343 64.56216677 -155.00442469 63.12812537 C-154.45623548 59.70743322 -153.90944465 56.28652857 -153.36577988 52.86511421 C-152.78324167 49.20121284 -152.19693699 45.53793274 -151.60986328 41.87475586 C-151.44040821 40.80098379 -151.27095314 39.72721172 -151.09636307 38.62090111 C-150.86244921 37.16795363 -150.86244921 37.16795363 -150.62380981 35.68565369 C-150.49023134 34.8467456 -150.35665287 34.00783751 -150.21902657 33.14350796 C-149.8125 31.125 -149.8125 31.125 -148.8125 29.125 C-146.93115234 28.48999023 -146.93115234 28.48999023 -144.3984375 27.93359375 C-142.94727539 27.60717896 -142.94727539 27.60717896 -141.46679688 27.27416992 C-139.84354492 26.92189331 -139.84354492 26.92189331 -138.1875 26.5625 C-135.78890929 26.0267271 -133.39048177 25.49022332 -130.9921875 24.953125 C-130.34509827 24.80940964 -129.69800903 24.66569427 -129.03131104 24.5176239 C-123.97406311 23.39316724 -118.92714638 22.22780671 -113.8828125 21.046875 C-95.61884236 16.77725327 -77.32527478 12.69386469 -58.97744751 8.79983521 C-45.535849 5.94617682 -32.12961368 2.99078968 -18.80712891 -0.3828125 C-16.97747933 -0.84608474 -15.14506795 -1.2984101 -13.3125 -1.75 C-12.3534375 -1.99492188 -11.394375 -2.23984375 -10.40625 -2.4921875 C-6.12537264 -3.12400374 -3.57804938 -2.38536625 0 0 Z " fill="#FDFDFD" transform="translate(638.8125,748.875)"/>
<path d="M0 0 C-4.23386873 27.93080718 -8.69234438 55.82164907 -13.2477715 83.70166159 C-14.17329408 89.36884145 -15.09659518 95.03638327 -16.02012634 100.70388794 C-17.97148752 112.67697274 -19.92494559 124.64971468 -21.87890625 136.62237549 C-24.78093951 154.40434097 -27.68124205 172.18658869 -30.57977521 189.96912503 C-31.52458468 195.76533506 -32.4697499 201.56148662 -33.41572952 207.3575058 C-37.13735518 230.1607625 -40.84853821 252.96538969 -44.47524607 275.78396297 C-44.94146741 278.71700276 -45.40832845 281.64994006 -45.87536907 284.5828495 C-47.16384931 292.67698534 -48.45039586 300.77137568 -49.72194529 308.86819077 C-50.22438 312.06065686 -50.73141105 315.25238078 -51.23962712 318.4439311 C-51.47079797 319.90259884 -51.69989556 321.36159695 -51.9267242 322.82094622 C-52.23389328 324.79627322 -52.54886435 326.77038231 -52.86424255 328.74441528 C-53.03664176 329.84010897 -53.20904097 330.93580265 -53.38666439 332.06469917 C-53.97856122 334.89739832 -54.8357401 337.35692759 -56 340 C-56.83340912 340.07721535 -56.83340912 340.07721535 -57.68365479 340.1559906 C-62.94066352 340.68507444 -67.97702433 341.54662467 -73.109375 342.78515625 C-73.86112 342.96163193 -74.61286499 343.1381076 -75.38739014 343.31993103 C-77.00135379 343.69904233 -78.61480741 344.08033054 -80.2277832 344.46362305 C-84.59168328 345.49979059 -88.95982692 346.51771492 -93.328125 347.53515625 C-94.22233154 347.7436319 -95.11653809 347.95210754 -96.0378418 348.16690063 C-104.83769047 350.21012072 -113.6649098 352.11615748 -122.5 354 C-135.48778573 356.77354435 -148.43895013 359.68193546 -161.375 362.6875 C-183.7841503 367.88790909 -183.7841503 367.88790909 -193.625 370.0625 C-194.98310791 370.36837036 -194.98310791 370.36837036 -196.36865234 370.68041992 C-200.31088066 371.54135297 -203.93603649 372.2571079 -208 372 C-208.24863431 365.05382001 -207.28914505 358.54360365 -206.14941406 351.70043945 C-205.94998451 350.47161765 -205.75055496 349.24279585 -205.54508209 347.97673702 C-204.99171558 344.57482982 -204.43269579 341.17393921 -203.87132931 337.77334881 C-203.26374494 334.08370196 -202.66370791 330.39282721 -202.06280518 326.7020874 C-201.01646411 320.28154175 -199.96567985 313.8617364 -198.91186523 307.44241333 C-197.23791929 297.2450668 -195.57224543 287.04637882 -193.90820312 276.84741211 C-193.47839343 274.21338861 -193.04857022 271.57936733 -192.61874104 268.94534701 C-192.32823752 267.16511898 -192.0377452 265.38488913 -191.74726391 263.60465747 C-190.85609324 258.14352053 -189.96415382 252.68250974 -189.07164669 247.22159106 C-184.56205106 219.62850533 -180.08642398 192.03003981 -175.63097286 164.42816186 C-174.98133619 160.40388542 -174.33145975 156.37964771 -173.68158221 152.35541016 C-170.99186803 135.69968137 -168.30276809 119.04385388 -165.61779785 102.38735962 C-164.27804909 94.0761734 -162.93657969 85.765267 -161.59299874 77.4546994 C-160.77097315 72.36960769 -159.95106129 67.28418157 -159.13281798 62.19847995 C-158.63537106 59.10999097 -158.13584645 56.02184088 -157.63569021 52.93378961 C-157.40593745 51.51261766 -157.17704556 50.09130624 -156.94907618 48.66984713 C-156.64002778 46.74360251 -156.32761626 44.81789835 -156.01501465 42.89222717 C-155.84192528 41.81924912 -155.66883591 40.74627108 -155.4905014 39.64077854 C-155 37 -155 37 -154 34 C-151.46827619 33.15331659 -149.0814056 32.52431161 -146.48242188 31.96337891 C-145.68427567 31.78024517 -144.88612946 31.59711143 -144.063797 31.40842819 C-141.36815951 30.79342843 -138.66864217 30.19758418 -135.96875 29.6015625 C-134.04235759 29.16641706 -132.11621558 28.7301618 -130.19030762 28.2928772 C-124.91171951 27.0981174 -119.62946277 25.92035946 -114.34637451 24.74568176 C-109.84006261 23.74152799 -105.33595652 22.72767312 -100.83183289 21.71375656 C-87.81882035 18.78460531 -74.79990032 15.88249814 -61.77832031 12.99169922 C-55.60566569 11.6213162 -49.43412509 10.2459809 -43.26282501 8.86951256 C-38.45768695 7.79844734 -33.65190798 6.73028145 -28.84593201 5.66298294 C-26.56507834 5.15601274 -24.28444598 4.64804573 -22.00404358 4.13904953 C-18.86077938 3.43782311 -15.71665459 2.74059629 -12.57226562 2.04443359 C-11.64072662 1.83572632 -10.70918762 1.62701904 -9.74942017 1.4119873 C-8.89870941 1.22449921 -8.04799866 1.03701111 -7.17150879 0.84384155 C-6.43369423 0.67984549 -5.69587967 0.51584942 -4.93570709 0.34688377 C-3 0 -3 0 0 0 Z " fill="#FDFDFD" transform="translate(706,361)"/>
<path d="M0 0 C7.60601007 3.9828335 14.77805417 8.3623793 21.875 13.1875 C23.98885382 14.61045932 26.1034712 16.03228482 28.21875 17.453125 C28.76655121 17.82163071 29.31435242 18.19013641 29.87875366 18.56980896 C36.34220249 22.91280656 42.85767318 27.17597081 49.375 31.4375 C50.60921767 32.2450275 51.8434299 33.05256333 53.07763672 33.86010742 C56.13041264 35.85705174 59.18391475 37.85288271 62.2376709 39.84832764 C65.02598933 41.67047837 67.81375215 43.49347826 70.6015625 45.31640625 C73.79787696 47.40637893 76.99425908 49.49624754 80.19091797 51.58569336 C88.29760144 56.88489139 96.39954355 62.19129147 104.5 67.5 C117.9936733 76.34302054 131.49552054 85.17348877 145 94 C149.27095025 96.79148785 153.54179975 99.58312969 157.8125 102.375 C158.87315674 103.06835449 159.93381348 103.76170898 161.02661133 104.47607422 C166.81286721 108.25941209 172.59718412 112.04567601 178.37890625 115.8359375 C179.30643456 116.4439772 179.30643456 116.4439772 180.25270081 117.06430054 C180.87144577 117.46992218 181.49019073 117.87554382 182.12768555 118.29345703 C192.17921617 124.88278468 202.23595921 131.4634678 212.3190918 138.00439453 C217.24502318 141.20239722 222.16237391 144.41323466 227.07421875 147.6328125 C227.69562241 148.04005554 228.31702606 148.44729858 228.95726013 148.86688232 C232.12227941 150.94162359 235.28606467 153.01821491 238.44799805 155.09765625 C243.81676079 158.62560279 249.19070654 162.14022729 254.6328125 165.5546875 C255.43887939 166.06306152 256.24494629 166.57143555 257.07543945 167.09521484 C258.52135431 168.00319194 259.97270631 168.90259266 261.43041992 169.79150391 C263.30078125 170.96875 263.30078125 170.96875 266 173 C266 173.99 266 174.98 266 176 C246.97360492 180.42158354 227.94397377 184.8276657 208.875 189.0625 C208.14634735 189.22433777 207.4176947 189.38617554 206.66696167 189.55291748 C198.25155562 191.41945373 189.83031231 193.25744195 181.40234375 195.06640625 C180.60712814 195.23711136 179.81191254 195.40781647 178.99259949 195.58369446 C177.80335625 195.83895149 177.80335625 195.83895149 176.59008789 196.09936523 C174.99755147 196.44121031 173.40502214 196.78308842 171.8125 197.125 C171.02841766 197.29331329 170.24433533 197.46162659 169.43649292 197.63504028 C160.07538295 199.64762732 150.7397873 201.72785164 141.4375 204 C131.78579149 206.3514683 122.11842064 208.62731732 112.42996216 210.82226562 C110.82961633 211.18629029 109.2300403 211.5537185 107.63131714 211.92480469 C86.65695901 216.78604987 86.65695901 216.78604987 79.703125 212.83203125 C78.20557301 211.84523319 76.72171356 210.8374349 75.25 209.8125 C73.57254601 208.69911624 71.89412589 207.587187 70.21484375 206.4765625 C69.35487793 205.89938477 68.49491211 205.32220703 67.60888672 204.72753906 C63.40655632 201.94486174 59.10922746 199.32106992 54.8125 196.6875 C47.29459708 192.04919439 39.79866358 187.37683042 32.3125 182.6875 C23.73220671 177.31495609 15.1250337 171.9878979 6.5 166.6875 C5.41251465 166.01783203 4.3250293 165.34816406 3.20458984 164.65820312 C-1.57476808 161.71548938 -6.35763318 158.77977474 -11.16015625 155.875 C-12.62765771 154.97925439 -14.09511009 154.08342834 -15.5625 153.1875 C-16.21734375 152.79715576 -16.8721875 152.40681152 -17.546875 152.00463867 C-21.8868466 149.3394602 -21.8868466 149.3394602 -23 146 C-22.83774585 144.03955445 -22.58729294 142.08602987 -22.29177856 140.14120483 C-22.109487 138.91847366 -21.92719543 137.69574249 -21.73937988 136.43595886 C-21.52967895 135.07886662 -21.31983527 133.72179643 -21.10986328 132.36474609 C-20.89428805 130.93746322 -20.67932691 129.51008748 -20.4649353 128.08262634 C-19.88046255 124.20374697 -19.28707675 120.3262786 -18.69188547 116.44903135 C-18.07115265 112.39694516 -17.4578101 108.3437401 -16.84347534 104.29067993 C-15.81086296 97.48567745 -14.77265949 90.68154625 -13.73095703 83.87792969 C-12.52511333 76.00193244 -11.32719034 68.12476265 -10.13369954 60.2468847 C-8.9870339 52.67880234 -7.83566168 45.11144407 -6.68181992 37.54445267 C-6.19002269 34.31899274 -5.69973361 31.09330883 -5.21060562 27.86744308 C-4.63501094 24.07317659 -4.05526208 20.27956782 -3.47223282 16.48643684 C-3.25835142 15.09060032 -3.04589195 13.69454511 -2.83492279 12.29826546 C-2.54784089 10.39986988 -2.2551807 8.5023203 -1.96218872 6.60482788 C-1.79957613 5.54036627 -1.63696354 4.47590466 -1.46942329 3.37918663 C-1 1 -1 1 0 0 Z " fill="#FDFDFD" transform="translate(740,451)"/>
<path d="M0 0 C1.65157854 1.02726882 3.31863761 2.03005312 5 3.0078125 C6.66883148 4.04339454 8.33545162 5.08254744 10 6.125 C11.33164185 6.95608276 11.33164185 6.95608276 12.69018555 7.80395508 C14.53304563 8.95506997 16.37508447 10.10750065 18.21630859 11.26123047 C20.99825085 12.99890743 23.78914687 14.72138318 26.58203125 16.44140625 C28.32574168 17.52308157 30.06924003 18.60509886 31.8125 19.6875 C32.63685547 20.1923291 33.46121094 20.6971582 34.31054688 21.21728516 C35.06013672 21.68569824 35.80972656 22.15411133 36.58203125 22.63671875 C37.24436768 23.04623779 37.9067041 23.45575684 38.58911133 23.87768555 C39.05470459 24.24804932 39.52029785 24.61841309 40 25 C40 25.66 40 26.32 40 27 C-18.73686125 40.37079219 -77.481642 53.70572234 -136.24258995 66.97023964 C-138.31670418 67.43844905 -140.39081281 67.90668328 -142.46492004 68.37492371 C-151.59759374 70.43664962 -160.73039027 72.49783053 -169.86328125 74.55859375 C-171.0413994 74.82445471 -172.21951756 75.09031567 -173.43333626 75.36423302 C-176.73587453 76.10944475 -180.03846041 76.85444504 -183.34106445 77.59936523 C-184.77290007 77.92247744 -184.77290007 77.92247744 -186.23366165 78.25211716 C-187.99497633 78.64928753 -189.75657868 79.04518521 -191.51851845 79.43957329 C-193.18690541 79.8163678 -194.85355534 80.20092952 -196.5184536 80.59285164 C-197.30970446 80.77672369 -198.10095531 80.96059574 -198.91618347 81.15003967 C-199.95527249 81.39598421 -199.95527249 81.39598421 -201.0153532 81.64689732 C-203 82 -203 82 -207 82 C-207 110.71 -207 139.42 -207 169 C-207.66 168.67 -208.32 168.34 -209 168 C-208.505 84.345 -208.505 84.345 -208 -1 C-207.67 -1 -207.34 -1 -207 -1 C-207 12.2 -207 25.4 -207 39 C-202.05 37.68 -197.1 36.36 -192 35 C-188.1220645 34.07271095 -184.24666506 33.16377813 -180.35717773 32.28955078 C-179.29280361 32.04788461 -178.22842949 31.80621843 -177.13180161 31.55722904 C-173.64965508 30.76729629 -170.16662262 29.98134466 -166.68359375 29.1953125 C-164.20325172 28.63310908 -161.72297252 28.07062835 -159.24275208 27.50788879 C-147.2417015 24.78672675 -135.23761626 22.07905884 -123.23261452 19.37538815 C-117.16966777 18.00991177 -111.10702451 16.64309063 -105.04452658 15.27562308 C-103.04306189 14.82423976 -101.04153723 14.37312299 -99.04001236 13.92200661 C-84.02194322 10.53582828 -69.02037987 7.0965274 -54.06122017 3.45807648 C-51.79432807 2.90812821 -49.52626326 2.36337906 -47.2575531 1.82098389 C-46.54925008 1.65164337 -45.84094706 1.48230286 -45.11118031 1.30783081 C-43.74465717 0.98136713 -42.37807133 0.65516579 -41.01141644 0.32925415 C-36.6549876 -0.71349322 -32.31460695 -1.81158923 -27.97436523 -2.91943359 C-8.90670091 -7.58795226 -8.90670091 -7.58795226 0 0 Z " fill="#F1911D" transform="translate(1072,818)"/>
<path d="M0 0 C0.33 0 0.66 0 1 0 C1.023746 14.51226023 1.04117763 29.02451777 1.05181217 43.53679371 C1.05688922 50.28063994 1.06389499 57.02447133 1.07543945 63.76831055 C1.12896583 95.86090638 0.97872769 127.92072394 0 160 C-6.71118164 161.56884766 -6.71118164 161.56884766 -8.71903324 162.03818703 C-11.46034502 162.67898264 -14.20164633 163.31982239 -16.94284058 163.96112061 C-20.11472095 164.70316445 -23.28709144 165.44301495 -26.46044922 166.17871094 C-28.58809439 166.67239271 -30.71498363 167.16937381 -32.84033203 167.67285156 C-36.3504592 168.48869174 -39.37455315 169 -43 169 C-43.33 169.66 -43.66 170.32 -44 171 C-44.54527344 170.38253906 -45.09054687 169.76507812 -45.65234375 169.12890625 C-50.24821679 163.96738729 -54.96279075 159.00036206 -59.8828125 154.1484375 C-62.43796971 151.55556579 -64.79264669 148.82552292 -67.16015625 146.0625 C-70.59949534 142.20693516 -74.31043135 138.61427133 -78 135 C-77.67 134.34 -77.34 133.68 -77 133 C-74.63083835 132.30167292 -72.32014555 131.72976369 -69.90991211 131.21240234 C-69.16849472 131.04629959 -68.42707733 130.88019684 -67.66319275 130.70906067 C-65.20295204 130.15998487 -62.74024239 129.62295388 -60.27734375 129.0859375 C-58.57467076 128.70838805 -56.87216291 128.33009312 -55.16981506 127.95108032 C-50.6817103 126.95395498 -46.19142532 125.96700911 -41.70062256 124.9821167 C-36.3166631 123.79914648 -30.93547549 122.60364009 -25.55382538 121.41021729 C-17.37130802 119.59716185 -9.18541746 117.80013655 -1 116 C-1 103.46 -1 90.92 -1 78 C-4.06369873 78.69673828 -7.12739746 79.39347656 -10.28393555 80.11132812 C-20.40097301 82.41129359 -30.51934449 84.70534622 -40.63838482 86.99648285 C-46.77414093 88.38592206 -52.90943049 89.7773559 -59.04370117 91.17333984 C-64.96242636 92.52019485 -70.88231443 93.8618211 -76.80304909 95.19981384 C-79.06291821 95.71147705 -81.32236026 96.22503026 -83.58136559 96.74049377 C-86.74283484 97.46154521 -89.90574894 98.17589218 -93.0690918 98.88867188 C-94.47279022 99.21127235 -94.47279022 99.21127235 -95.90484619 99.54039001 C-96.76996323 99.73391556 -97.63508026 99.9274411 -98.52641296 100.12683105 C-99.27398707 100.29644096 -100.02156118 100.46605087 -100.79178905 100.64080048 C-103.22666049 101.03686982 -105.53731375 101.06052796 -108 101 C-108.33 101.66 -108.66 102.32 -109 103 C-109.41467529 102.51966309 -109.82935059 102.03932617 -110.2565918 101.54443359 C-114.66731689 96.46556555 -119.19537534 91.51642038 -123.8125 86.625 C-124.50666016 85.88620605 -125.20082031 85.14741211 -125.91601562 84.38623047 C-130.60935775 79.41072131 -135.40071747 74.57892791 -140.375 69.8828125 C-142 68 -142 68 -142 65 C-126.53445393 61.54862219 -111.06888708 58.09733752 -95.60329628 54.64616013 C-88.42041704 53.0432841 -81.23754429 51.44037896 -74.0546875 49.83740234 C-67.78533196 48.43828915 -61.51596356 47.03923357 -55.24658048 45.64024377 C-51.93499378 44.90127335 -48.623413 44.16227639 -45.31184769 43.42321014 C-44.04987942 43.14157265 -42.78791115 42.85993515 -41.48770142 42.56976318 C-40.25892965 42.29550632 -39.03015789 42.02124947 -37.76415062 41.73868179 C-35.39533291 41.21023548 -33.02642063 40.68221287 -30.65740395 40.15465927 C-25.55426379 39.01812115 -20.45212562 37.87785171 -15.35369873 36.72033691 C-14.51005453 36.52980366 -13.66641033 36.3392704 -12.79720116 36.14296341 C-11.27252534 35.79837033 -9.74839585 35.45134591 -8.22496986 35.10126877 C-5.40746442 34.46647351 -2.89998626 34 0 34 C0 22.78 0 11.56 0 0 Z " fill="#F2911D" transform="translate(823,667)"/>
<path d="M0 0 C0.66 0 1.32 0 2 0 C3.26313837 1.45414954 4.45780319 2.96777252 5.625 4.5 C10.39715114 10.48842992 15.67361825 15.82013598 21.15087891 21.1640625 C25.10916609 25.0414091 28.85491128 29.01622124 32.45263672 33.23168945 C33.90754823 34.89434709 35.4192387 36.45752601 37 38 C-25.97222594 53.44728805 -88.95881191 68.8363505 -152 84 C-150.94917954 74.45124016 -149.79290439 64.99472686 -147.9375 55.5625 C-146.60222627 48.71736067 -145.57672439 41.95340805 -145 35 C-144.67 35.99 -144.34 36.98 -144 38 C-142.99487869 37.71202545 -141.98975739 37.4240509 -140.95417786 37.12734985 C-127.5919025 33.33746273 -114.12774358 30.007583 -100.63671875 26.7109375 C-98.22730823 26.12013924 -95.81795154 25.52912142 -93.40864563 24.93789673 C-88.39254957 23.70757293 -83.37602251 22.47902866 -78.35913086 21.25195312 C-71.95938474 19.68662319 -65.56042488 18.11810819 -59.16174603 16.54842186 C-53.00784992 15.03895211 -46.85354126 13.53116759 -40.69921875 12.0234375 C-39.54311285 11.74003887 -38.38700695 11.45664024 -37.19586754 11.16465378 C-30.13278948 9.43391761 -23.06778968 7.71139242 -16 6 C-15.25767246 5.81935249 -14.51534492 5.63870499 -13.75052261 5.45258331 C-11.90365428 5.00456513 -10.0550634 4.56366296 -8.20629883 4.12353516 C-7.26901443 3.89944977 -6.33173004 3.67536438 -5.36604309 3.44448853 C-3 3 -3 3 1 3 C0.67 2.01 0.34 1.02 0 0 Z " fill="#F2921D" transform="translate(760,878)"/>
<path d="M0 0 C1.093125 0.64582031 2.18625 1.29164063 3.3125 1.95703125 C3.92206543 2.31506836 4.53163086 2.67310547 5.15966797 3.04199219 C11.12402739 6.5798437 16.97065439 10.30941273 22.81762695 14.03686523 C31.87204875 19.7979425 41.08549368 25.29058334 50.3125 30.76953125 C47.32024651 32.40763574 44.53199003 33.30496905 41.2071228 34.04611206 C39.66024025 34.39495956 39.66024025 34.39495956 38.08210754 34.75085449 C36.95592514 34.99920044 35.82974274 35.24754639 34.66943359 35.50341797 C32.88313286 35.90386826 32.88313286 35.90386826 31.06074524 36.31240845 C27.79417358 37.04361822 24.52662475 37.77013839 21.25855589 38.49460745 C17.82148245 39.25770493 14.38574636 40.02677704 10.94985962 40.79519653 C4.42396148 42.25372875 -2.10312286 43.70687905 -8.63064706 45.15811455 C-15.98783615 46.79407811 -23.34368657 48.4360197 -30.69942594 50.07848716 C-43.40550344 52.91547107 -56.11161774 55.75235969 -68.82126808 58.57330132 C-73.99821032 59.72262913 -79.17367831 60.87694055 -84.34344482 62.0581665 C-85.60442269 62.34444507 -85.60442269 62.34444507 -86.89087486 62.63650703 C-88.39879565 62.9793739 -89.90597867 63.32551223 -91.41217995 63.67585564 C-94.63601974 64.40624591 -97.35200853 64.76953125 -100.6875 64.76953125 C-100.6875 50.57953125 -100.6875 36.38953125 -100.6875 21.76953125 C-83.45848477 17.17512719 -83.45848477 17.17512719 -76.68847656 15.67895508 C-75.9108194 15.50441299 -75.13316223 15.32987091 -74.3319397 15.15003967 C-71.83127999 14.58943752 -69.32971335 14.03300441 -66.828125 13.4765625 C-65.06306135 13.08142025 -63.29806835 12.68596234 -61.53314209 12.29020691 C-56.9384773 11.26058935 -52.34307577 10.23430371 -47.74743652 9.20904541 C-40.35173157 7.55875485 -32.95694841 5.90435196 -25.56261444 4.24793053 C-22.98870326 3.67202307 -20.41433108 3.0982122 -17.83990479 2.52461243 C-16.27118347 2.17378811 -14.70247738 1.82289568 -13.13378906 1.47192383 C-12.42008148 1.31348999 -11.7063739 1.15505615 -10.97103882 0.99182129 C-2.15351187 -0.98598291 -2.15351187 -0.98598291 0 0 Z " fill="#F2911E" transform="translate(965.6875,752.23046875)"/>
<path d="M0 0 C1.5289917 1.73669434 1.5289917 1.73669434 2.76928711 3.38378906 C3.40326416 4.0105957 4.03724121 4.63740234 4.69042969 5.28320312 C5.41975708 6.08322754 5.41975708 6.08322754 6.16381836 6.89941406 C6.72206299 7.50599854 7.28030762 8.11258301 7.85546875 8.73754883 C8.70999634 9.67618774 8.70999634 9.67618774 9.58178711 10.63378906 C14.46376257 15.93784859 19.41627563 21.11162366 24.58569336 26.13769531 C27.14561982 28.77089337 29.4296225 31.55303897 31.76928711 34.38378906 C30.82166504 34.58311035 29.87404297 34.78243164 28.89770508 34.98779297 C24.14539309 35.98928051 19.39464748 36.99808887 14.64428711 38.00878906 C13.74811676 38.19931854 12.85194641 38.38984802 11.92861938 38.58615112 C-0.95192829 41.33071453 -13.80746314 44.17647562 -26.64868164 47.09863281 C-28.0596511 47.41935484 -29.47062115 47.74007424 -30.8815918 48.06079102 C-37.19676901 49.49717824 -43.51092441 50.93777639 -49.82238674 52.39040661 C-51.83024371 52.85173455 -53.83862514 53.31069486 -55.84724426 53.76869202 C-58.32732715 54.33447275 -60.80646012 54.90443898 -63.2844696 55.47923279 C-64.39119522 55.73076614 -65.49792084 55.9822995 -66.63818359 56.24145508 C-67.60182327 56.46301773 -68.56546295 56.68458038 -69.55830383 56.91285706 C-72.17737219 57.37438936 -74.57777239 57.47186715 -77.23071289 57.38378906 C-76.82428832 49.98405892 -75.8339156 42.81217414 -74.39208984 35.55126953 C-73.20460937 29.49417611 -72.39562667 23.42473721 -71.66040039 17.29785156 C-71.23071289 14.38378906 -71.23071289 14.38378906 -70.23071289 12.38378906 C-67.65194702 11.53344727 -67.65194702 11.53344727 -64.16967773 10.68457031 C-63.5370401 10.52833694 -62.90440247 10.37210358 -62.25259399 10.21113586 C-60.15127298 9.69597257 -58.04701269 9.19466593 -55.94165039 8.69628906 C-55.2231554 8.52514587 -54.50466042 8.35400269 -53.76439285 8.17767334 C-49.95916234 7.27290645 -46.1514246 6.37963598 -42.34155273 5.49462891 C-38.40979723 4.57866596 -34.48931124 3.62151696 -30.56981468 2.65464783 C-27.55200481 1.91861741 -24.52732316 1.21481453 -21.49992752 0.51937866 C-20.0514164 0.18062427 -18.60570264 -0.17033667 -17.16318893 -0.53378296 C-4.43632931 -3.72120768 -4.43632931 -3.72120768 0 0 Z " fill="#F2921E" transform="translate(700.230712890625,813.6162109375)"/>
<path d="M0 0 C1.41516888 0.90827359 2.82779418 1.8212374 4.21679688 2.76904297 C6.4886918 4.28424062 8.81041814 5.70503258 11.140625 7.12890625 C16.46896156 10.38607059 21.76908169 13.68647406 27.0625 17 C28.61062145 17.96753693 30.15879342 18.93499304 31.70703125 19.90234375 C32.81433594 20.59457031 33.92164063 21.28679688 35.0625 22 C34.0625 24 34.0625 24 32.09547424 24.65811157 C31.23324753 24.84908417 30.37102081 25.04005676 29.48266602 25.23681641 C28.50818008 25.45689362 27.53369415 25.67697083 26.52967834 25.90371704 C25.46929855 26.13400604 24.40891876 26.36429504 23.31640625 26.6015625 C22.23495834 26.8428891 21.15351044 27.0842157 20.03929138 27.33285522 C17.74768434 27.84268431 15.45517646 28.34847823 13.16186523 28.85058594 C9.64183886 29.62131305 6.12445848 30.40325429 2.60742188 31.1875 C0.38556202 31.68034327 -1.83643867 32.17255209 -4.05859375 32.6640625 C-5.64612709 33.0155687 -5.64612709 33.0155687 -7.26573181 33.37417603 C-8.2433699 33.58794891 -9.221008 33.8017218 -10.22827148 34.02197266 C-11.09129379 34.21135406 -11.9543161 34.40073547 -12.8434906 34.59585571 C-14.9375 35 -14.9375 35 -16.9375 35 C-16.9375 23.78 -16.9375 12.56 -16.9375 1 C-4.9375 -2 -4.9375 -2 0 0 Z " fill="#F2921E" transform="translate(881.9375,700)"/>
<path d="M0 0 C2.9785214 2.29929777 5.61553434 4.52819271 8 7.4375 C11.98325958 12.12160036 16.34264591 16.39664654 20.73242188 20.69506836 C22.17198477 22.11295362 23.58831838 23.55435311 25 25 C25 25.33 25 25.66 25 26 C21.04955313 26.85710792 17.09853768 27.71153808 13.14697266 28.56347656 C11.80241195 28.85375361 10.45800969 29.14476556 9.11376953 29.43652344 C7.18303439 29.85544309 5.25168158 30.27151281 3.3203125 30.6875 C2.15773926 30.93886719 0.99516602 31.19023438 -0.20263672 31.44921875 C-3 32 -3 32 -5 32 C-5.33 32.66 -5.66 33.32 -6 34 C-5.3105043 26.52650061 -3.95100009 19.28454667 -2.4375 11.9375 C-2.20353516 10.78572266 -1.96957031 9.63394531 -1.72851562 8.44726562 C-1.15586745 5.63077154 -0.57961941 2.81506618 0 0 Z " fill="#EF911F" transform="translate(642,754)"/>
<path d="M0 0 C7.26 0 14.52 0 22 0 C19.75 4.5 19.75 4.5 16 6 C16 6.66 16 7.32 16 8 C15.34 8 14.68 8 14 8 C13.7525 8.61875 13.505 9.2375 13.25 9.875 C11.79371361 12.35068687 10.62187494 12.95125002 8 14 C8 14.66 8 15.32 8 16 C7.34 16 6.68 16 6 16 C5.7525 16.61875 5.505 17.2375 5.25 17.875 C4 20 4 20 0 22 C0 14.74 0 7.48 0 0 Z " fill="#1C1F26" transform="translate(0,0)"/>
<path d="M0 0 C0 5.61 0 11.22 0 17 C-5 12 -5 12 -6.94921875 10.015625 C-7.52285156 9.43296875 -8.09648438 8.8503125 -8.6875 8.25 C-9.26886719 7.65703125 -9.85023438 7.0640625 -10.44921875 6.453125 C-11.95513974 4.90358196 -11.95513974 4.90358196 -14 4 C-13.67 3.34 -13.34 2.68 -13 2 C-11.00727182 1.70599092 -9.01204527 1.41989164 -7.0078125 1.21875 C-4.65873604 0.96281949 -2.33450226 0 0 0 Z " fill="#EA8F1D" transform="translate(823,866)"/>
<path d="M0 0 C0.99 0 1.98 0 3 0 C3.268125 0.639375 3.53625 1.27875 3.8125 1.9375 C4.88667752 4.33131686 4.88667752 4.33131686 8 5 C8 5.99 8 6.98 8 8 C8.99 8 9.98 8 11 8 C11 8.99 11 9.98 11 11 C7.37 11 3.74 11 0 11 C0 7.37 0 3.74 0 0 Z " fill="#1C1F26" transform="translate(0,1656)"/>
<path d="M0 0 C3.63 0 7.26 0 11 0 C11 3.63 11 7.26 11 11 C10.01 11 9.02 11 8 11 C8 10.01 8 9.02 8 8 C7.01 8 6.02 8 5 8 C4.731875 7.360625 4.46375 6.72125 4.1875 6.0625 C3.11332248 3.66868314 3.11332248 3.66868314 0 3 C0 2.01 0 1.02 0 0 Z " fill="#1C1F26" transform="translate(1656,0)"/>
<path d="M0 0 C0.66 0 1.32 0 2 0 C2 0.66 2 1.32 2 2 C1.34 2 0.68 2 0 2 C0 1.34 0 0.68 0 0 Z " fill="#1C1F26" transform="translate(1665,1665)"/>
</svg>
